<svg width="749" height="555" viewBox="0 0 749 555" fill="none" xmlns="http://www.w3.org/2000/svg">
<g clip-path="url(#clip0_100_64)">
<path d="M678.221 552.429H519.407V547.554C519.407 543.322 521.088 539.262 524.08 536.269C527.072 533.276 531.13 531.595 535.362 531.595H662.266C666.498 531.595 670.556 533.276 673.548 536.269C676.54 539.262 678.221 543.322 678.221 547.554V552.429V552.429Z" fill="#E6E6E6"/>
<path d="M595.097 532.568L599.927 530.622C549.394 405.153 554.262 246.863 596.979 111.079C602.053 95.3462 602.419 78.473 598.032 62.5351C593.644 46.5972 584.695 32.2898 572.285 21.3731C547.491 -0.759409 513.308 -6.15108 483.072 7.30073C453.226 20.5809 449.112 43.7129 449.112 66.7324H454.319C454.319 42.1602 459.569 23.4592 485.188 12.0598C513.527 -0.547047 545.571 4.50955 568.818 25.2598C580.474 35.5129 588.88 48.9509 593.001 63.9204C597.122 78.8899 596.778 94.738 592.012 109.515C548.802 246.867 544.219 406.244 595.097 532.568Z" fill="#E6E6E6"/>
<path d="M453.018 143.558C463.083 143.558 471.242 135.397 471.242 125.329C471.242 115.26 463.083 107.099 453.018 107.099C442.952 107.099 434.793 115.26 434.793 125.329C434.793 135.397 442.952 143.558 453.018 143.558Z" fill="#E6E6E6"/>
<path d="M424.95 157.108V122.567H430.319V157.108C431.86 157.732 433.135 158.871 433.927 160.332C434.72 161.793 434.979 163.484 434.662 165.115C434.345 166.746 433.47 168.216 432.188 169.273C430.906 170.33 429.296 170.908 427.635 170.908C425.973 170.908 424.364 170.33 423.082 169.273C421.799 168.216 420.925 166.746 420.607 165.115C420.29 163.484 420.55 161.793 421.342 160.332C422.134 158.871 423.41 157.732 424.95 157.108Z" fill="#E6E6E6"/>
<path d="M398.995 96.0302C399.004 88.09 402.161 80.4775 407.774 74.8629C413.387 69.2483 420.997 66.0901 428.935 66.0811H478.402C486.343 66.0811 493.958 69.2364 499.573 74.853C505.188 80.4695 508.342 88.0872 508.342 96.0302C508.342 103.973 505.188 111.591 499.573 117.207C493.958 122.824 486.343 125.979 478.402 125.979H428.935C420.997 125.97 413.387 122.812 407.774 117.198C402.161 111.583 399.004 103.97 398.995 96.0302V96.0302Z" fill="#6C63FF"/>
<path d="M329.299 281.494C334.265 217.934 359.659 187.65 343.399 168.659C327.824 150.468 283.952 154.226 255.776 171.681C179.78 218.764 151.938 406.416 249.733 498.098C342.663 585.22 518.784 557.316 557.924 486.009C567.057 469.37 574.312 440.203 560.946 422.539C527.762 378.683 407.112 458.117 353.471 408.434C321.681 378.99 326.573 316.376 329.299 281.494Z" fill="#3F3D56"/>
<path d="M387.391 249.917C385.545 250.766 384.103 252.303 383.372 254.199C382.642 256.095 382.679 258.202 383.478 260.071C383.646 260.448 383.845 260.811 384.073 261.155L367.762 282.942L375.901 295.11L395.02 262.85C396.375 261.793 397.342 260.317 397.77 258.653C398.198 256.989 398.063 255.23 397.387 253.651C396.993 252.755 396.428 251.947 395.722 251.27C395.016 250.594 394.183 250.064 393.272 249.709C392.361 249.354 391.39 249.183 390.412 249.204C389.435 249.225 388.471 249.439 387.577 249.832C387.514 249.86 387.452 249.888 387.391 249.917Z" fill="#FFB6B6"/>
<path d="M387.378 287.48C388.445 288.427 385.484 289.595 382.352 287.752C381.456 287.218 381.073 286.996 380.972 287.137C380.72 287.49 382.191 290.089 381.798 295.862C381.556 299.307 375.836 305.785 369.339 312.102C360.557 320.645 350.344 328.886 350.344 328.886L346.759 326.015L309.162 295.862L302.816 287.077C303.397 283.608 304.27 280.194 305.425 276.871C307.016 272.272 308.907 267.783 311.085 263.432C312.254 261.064 313.452 258.808 314.6 256.732L334.743 278.937L351.624 297.534C351.624 297.534 356.538 289.616 360.345 287.46C360.831 287.15 361.383 286.96 361.957 286.906C365.804 286.724 366.036 284.629 361.574 280.065C357.113 275.501 362.742 279.763 366.711 278.534C370.679 277.304 366.711 278.534 367.547 275.461C368.383 272.388 379.512 266.222 379.512 266.222L379.975 266.635L388.385 274.061L390.792 276.186C390.792 276.186 388.163 283.4 387.438 284.921C386.713 286.442 386.32 286.523 387.378 287.48Z" fill="#6C63FF"/>
<path d="M609.071 427.431L609.481 416.319L566.826 409.449L566.221 425.849L609.071 427.431Z" fill="#FFB6B6"/>
<path d="M601.328 430.777L600.923 412.985L608.527 413.265L620.804 396.817C621.41 396.004 622.26 395.407 623.229 395.112C624.199 394.817 625.238 394.839 626.193 395.177C627.149 395.514 627.972 396.148 628.542 396.986C629.113 397.824 629.4 398.823 629.362 399.836L628.583 420.972L620.927 424.338L628.396 426.038L628.102 434.007L601.328 430.777Z" fill="#2F2E41"/>
<path d="M369.005 431.758L504.109 435.184C504.109 435.184 562.451 438.555 576.139 429.648L590.574 427.825L591.357 406.615C591.357 406.615 582.53 406.68 577.455 404.315C572.38 401.95 575.907 399.056 571.068 401.901C566.229 404.747 566.741 405.09 562.999 403.782C559.258 402.474 387.703 376.317 387.703 376.317L369.005 431.758Z" fill="#2F2E41"/>
<path d="M547.035 422.554L554.892 414.687L528.293 380.631L516.698 392.243L547.035 422.554Z" fill="#FFB6B6"/>
<path d="M539.084 415.709L550.885 402.391L556.269 407.77L576.453 404.063C577.449 403.88 578.479 404.02 579.39 404.464C580.302 404.907 581.047 405.63 581.519 406.528C581.99 407.425 582.163 408.45 582.011 409.452C581.859 410.455 581.39 411.382 580.674 412.099L565.732 427.064L557.831 424.322L562.15 430.65L556.516 436.292L539.084 415.709Z" fill="#2F2E41"/>
<path d="M315.703 357.745L317.046 388.975C318.627 425.741 359.104 447.993 390.491 428.797C391.07 428.443 391.65 428.077 392.232 427.697C392.232 427.697 404.131 424.501 403.77 419.439C403.409 414.377 406.316 411.913 408.888 413.294C411.461 414.674 445.142 366.86 445.142 366.86C445.142 366.86 515.121 401.777 530.559 409.997C530.559 409.997 545.074 387.295 544.021 387.533C542.969 387.771 457.449 327.897 457.449 327.897C457.449 327.897 443.517 313.793 426.234 323.105C425.874 324.473 426.182 324.521 426.182 324.521L369.092 371.054L361.025 355.73L315.703 357.745Z" fill="#2F2E41"/>
<path d="M369.531 318.701C369.422 320.144 369.217 321.577 368.916 322.993C368.505 325.041 367.842 327.031 366.942 328.917C366.942 328.917 366.942 331.022 362.914 338.074C358.885 345.127 363.921 342.104 366.942 347.343C369.964 352.572 366.942 350.164 363.589 353.529C362.623 354.508 361.937 355.728 361.602 357.062C361.268 358.396 361.296 359.796 361.685 361.115C361.685 361.115 318.417 361.145 310.36 358.123C302.303 355.1 300.47 338.074 307.691 336.392C314.902 334.709 305.506 333.037 301.265 329.158C297.025 325.28 305.506 318.933 305.506 318.933C305.506 318.933 302.011 312.898 302.303 292.638C302.344 290.775 302.516 288.916 302.816 287.077C303.397 283.608 304.27 280.194 305.425 276.871C307.016 272.272 308.907 267.783 311.085 263.432C312.253 261.064 313.452 258.807 314.6 256.732C314.781 256.41 314.953 256.097 315.134 255.785C317.32 251.916 319.314 248.753 320.633 246.728C321.65 245.156 322.265 244.27 322.265 244.27L329.597 231.515L354.071 242.99L352.681 261.759L356.901 275.914L358.845 282.432L360.345 287.46L362.662 295.247C362.662 295.247 362.027 295.277 362.783 296.315C366.262 300.942 368.517 306.372 369.339 312.102C369.629 314.289 369.694 316.501 369.531 318.701V318.701Z" fill="#6C63FF"/>
<path d="M440.209 320.724L439.75 320.575L381.172 301.707L402.757 230.87C403.187 229.46 403.932 228.165 404.934 227.084C405.937 226.003 407.172 225.164 408.546 224.63C409.92 224.096 411.398 223.881 412.867 224.001C414.336 224.121 415.759 224.573 417.028 225.323L454.462 247.446C457.425 249.195 459.679 251.93 460.831 255.173C461.983 258.416 461.959 261.961 460.763 265.188L440.209 320.724Z" fill="#2F2E41"/>
<path d="M440.447 325.227L381.398 306.206L402.983 235.37C403.413 233.96 404.158 232.665 405.16 231.584C406.163 230.503 407.398 229.664 408.772 229.13C410.146 228.596 411.624 228.38 413.093 228.5C414.562 228.62 415.985 229.072 417.254 229.822L456.475 249.41C462.367 252.891 462.23 261.902 459.494 269.295L440.447 325.227Z" fill="#6C63FF"/>
<path d="M434.535 330.354C433.175 331.121 431.671 331.597 430.117 331.752C428.563 331.906 426.995 331.736 425.51 331.252L387.768 319.094C384.872 318.147 382.461 316.106 381.05 313.405C379.638 310.705 379.339 307.559 380.214 304.641L399.137 242.544C399.515 241.303 400.137 240.151 400.966 239.154C401.795 238.157 402.815 237.335 403.966 236.738C405.117 236.14 406.375 235.779 407.668 235.674C408.96 235.57 410.26 235.724 411.492 236.129L450.605 248.975C452.469 249.587 454.191 250.567 455.67 251.856C457.149 253.144 458.354 254.717 459.216 256.48C460.077 258.242 460.576 260.16 460.684 262.119C460.792 264.078 460.506 266.039 459.844 267.886L439.612 324.307C438.704 326.869 436.901 329.016 434.535 330.354V330.354Z" fill="#3F3D56"/>
<path d="M352.687 231.733C367.617 231.733 379.721 219.627 379.721 204.692C379.721 189.758 367.617 177.651 352.687 177.651C337.757 177.651 325.654 189.758 325.654 204.692C325.654 219.627 337.757 231.733 352.687 231.733Z" fill="#FFB6B6"/>
<path d="M261.274 232.141C263.755 236.951 267.822 240.755 272.787 242.907C274.768 243.81 276.851 244.469 278.991 244.871C279.596 242.471 280.564 240.179 281.862 238.072C281.43 240.447 281.43 242.879 281.862 245.254C285.122 245.52 288.402 245.113 291.498 244.057C294.538 243.023 297.296 241.294 299.552 239.008C301.808 236.722 303.5 233.941 304.495 230.886C306.648 223.719 304.329 216.063 304.146 208.581C303.958 201.099 307.51 192.149 314.936 191.223C320.591 190.517 319.891 191.066 323.955 195.062C318.271 201.378 332.128 229.352 339.563 228.115C343.767 227.417 346.86 224.078 347.692 224.194C351.949 234.623 339.142 249.415 349.3 254.271L348.546 253.273C343.23 244.487 358.962 229.648 353.645 220.862C352.163 218.404 350.622 215.523 351.539 212.804C352.409 210.219 356.817 209.401 357.747 211.753C356.235 206.361 360.456 200.031 366.061 199.48C371.041 198.989 370.753 200.409 375.501 201.704C376.108 199.658 376.982 197.701 378.102 195.884C377.723 197.957 377.676 200.077 377.963 202.165C379.676 202.369 381.408 202.002 382.891 201.122C387.275 198.492 387.406 191.705 384.394 187.575C381.376 183.443 376.322 181.403 371.446 179.86C371.401 169.545 343.653 164.607 338.55 174.197C338.025 166.432 329.126 161.201 321.46 162.52C313.795 163.839 307.747 169.988 304.06 176.841C300.374 183.688 298.544 191.356 295.845 198.65C293.146 205.944 289.289 213.217 282.827 217.545C276.365 221.867 266.763 222.259 261.368 216.657C260.138 219.049 259.488 221.698 259.472 224.388C259.455 227.078 260.073 229.734 261.274 232.141V232.141Z" fill="#2F2E41"/>
<path d="M289.012 355.798C289.572 355.35 290.178 354.966 290.822 354.651C301.169 349.5 333.346 336.129 358.506 336.678C406.916 337.733 468.525 391.176 454.187 427.064C443.276 454.372 389.036 469.909 349.442 457.483C293.974 440.075 272.08 369.302 289.012 355.798Z" fill="#3F3D56"/>
<path d="M88.0411 552.532C72.2227 549.547 58.2204 478.261 89.3429 443.153C100.006 431.124 113.307 425.889 130.999 421.016C232.831 392.973 310.499 419.7 320.937 426.225C331.351 432.736 349.608 530.833 326.262 544.719C313.126 552.532 287.091 556.439 274.192 547.324C255.211 533.912 287.07 499.123 272.89 475.706C256.798 449.133 172.062 440.182 129.579 466.591C84.2545 494.767 177.744 569.46 88.0411 552.532Z" fill="#F2F2F2"/>
<path d="M193.802 431.331H133.369C118.451 417.029 107.784 403.246 116.324 391.806C116.324 388.517 117.63 385.363 119.955 383.037C122.28 380.712 125.433 379.406 128.721 379.406H198.45C201.738 379.406 204.891 380.712 207.216 383.037C209.541 385.363 210.847 388.517 210.847 391.806C214.098 404.842 208.289 418.019 193.802 431.331Z" fill="#CCCCCC"/>
<path d="M182.948 363.795C182.375 363.821 181.807 363.671 181.322 363.364C180.837 363.057 180.459 362.608 180.237 362.078C180.016 361.548 179.962 360.963 180.084 360.402C180.206 359.841 180.498 359.331 180.919 358.942L181.111 358.179C181.086 358.118 181.061 358.057 181.035 357.996C180.457 356.631 179.49 355.467 178.253 354.651C177.016 353.835 175.566 353.402 174.084 353.407C172.603 353.413 171.156 353.856 169.925 354.682C168.695 355.507 167.735 356.678 167.168 358.047C164.9 363.511 162.012 368.985 161.301 374.762C160.988 377.316 161.12 379.905 161.692 382.413C156.364 370.79 153.598 358.156 153.58 345.369C153.579 342.16 153.758 338.954 154.114 335.765C154.409 333.151 154.818 330.555 155.341 327.979C158.197 313.996 164.327 300.891 173.229 289.739C177.537 287.387 181.021 283.771 183.212 279.378C184.006 277.798 184.566 276.113 184.877 274.373C184.391 274.436 183.045 267.032 183.411 266.578C182.734 265.55 181.522 265.039 180.782 264.036C177.103 259.046 172.034 259.917 169.388 266.698C163.736 269.551 163.681 274.284 167.149 278.836C169.356 281.732 169.659 285.65 171.595 288.75C171.396 289.005 171.189 289.252 170.99 289.508C167.348 294.191 164.175 299.22 161.514 304.523C162.161 298.582 161.389 292.573 159.261 286.989C157.105 281.785 153.063 277.402 149.503 272.903C145.228 267.5 136.46 269.858 135.707 276.708C135.699 276.774 135.692 276.841 135.685 276.907C136.214 277.205 136.732 277.522 137.238 277.857C137.874 278.282 138.367 278.89 138.652 279.6C138.937 280.31 139.001 281.09 138.836 281.837C138.67 282.584 138.283 283.264 137.725 283.787C137.166 284.31 136.463 284.653 135.707 284.769L135.63 284.781C135.818 286.687 136.151 288.576 136.625 290.432C132.059 308.097 141.918 314.531 155.995 314.82C156.305 314.98 156.608 315.139 156.919 315.29C154.246 322.868 152.569 330.76 151.931 338.77C151.57 343.495 151.591 348.242 151.995 352.964L151.971 352.797C150.951 347.546 148.151 342.808 144.043 339.384C137.942 334.37 129.323 332.524 122.741 328.495C122.042 328.046 121.228 327.806 120.397 327.804C119.566 327.802 118.752 328.038 118.05 328.483C117.348 328.929 116.789 329.566 116.437 330.32C116.086 331.073 115.957 331.912 116.066 332.736C116.075 332.795 116.084 332.853 116.093 332.912C117.074 333.312 118.029 333.772 118.953 334.291C119.482 334.589 120 334.906 120.506 335.241C121.142 335.666 121.635 336.273 121.92 336.984C122.205 337.694 122.269 338.474 122.104 339.221C121.938 339.968 121.551 340.648 120.993 341.171C120.434 341.694 119.731 342.037 118.975 342.153L118.898 342.165C118.842 342.173 118.794 342.181 118.738 342.189C120.415 346.193 122.768 349.878 125.694 353.084C128.549 368.505 140.813 369.968 153.931 365.477H153.939C155.378 371.734 157.464 377.823 160.162 383.649H182.391C182.471 383.402 182.543 383.146 182.615 382.899C180.557 383.029 178.491 382.906 176.463 382.533C178.113 380.508 179.762 378.468 181.411 376.444C181.448 376.406 181.483 376.366 181.515 376.324C182.352 375.288 183.196 374.26 184.033 373.224L184.033 373.223C184.078 370.047 183.713 366.878 182.949 363.795L182.948 363.795Z" fill="#CCCCCC"/>
<path d="M258.769 428.092C259.138 429.165 259.837 430.095 260.767 430.746C261.696 431.398 262.808 431.737 263.943 431.717L286.113 431.146C287.256 431.124 288.361 430.732 289.263 430.03C290.166 429.327 290.816 428.351 291.118 427.248L294.255 393.691C295.368 394.196 296.58 394.445 297.802 394.42C299.945 394.366 301.98 393.463 303.458 391.909C304.935 390.354 305.735 388.276 305.681 386.132C305.628 383.988 304.724 381.953 303.171 380.475C301.617 378.997 299.54 378.196 297.396 378.25C296.908 378.249 296.421 378.299 295.943 378.401C295.424 377.839 294.793 377.392 294.09 377.089C293.387 376.786 292.629 376.633 291.864 376.641L257.762 377.522C257.479 377.532 257.198 377.567 256.921 377.626C256.173 377.766 255.464 378.064 254.841 378.5C254.218 378.937 253.695 379.502 253.309 380.158C252.923 380.813 252.681 381.544 252.601 382.301C252.52 383.057 252.603 383.822 252.843 384.545L258.769 428.092ZM294.899 391.413L297.131 383.416C297.385 382.492 297.391 381.518 297.148 380.591C297.256 380.591 297.352 380.54 297.46 380.539C298.991 380.508 300.471 381.085 301.577 382.144C302.683 383.202 303.324 384.657 303.36 386.187C303.396 387.718 302.823 389.201 301.768 390.31C300.713 391.42 299.261 392.065 297.731 392.106C296.741 392.137 295.762 391.897 294.899 391.413V391.413Z" fill="#CCCCCC"/>
<path d="M256.921 377.626C257.647 381.782 265.816 384.703 275.638 384.195C284.67 383.779 292.055 380.607 293.408 376.847C292.907 376.699 292.386 376.629 291.864 376.641L257.762 377.522C257.479 377.532 257.198 377.567 256.921 377.626V377.626Z" fill="white"/>
<path d="M1.1873 554.106L747.813 554.412C748.128 554.412 748.43 554.287 748.652 554.064C748.875 553.842 749 553.539 749 553.224C749 552.909 748.875 552.607 748.652 552.385C748.43 552.162 748.128 552.037 747.813 552.037L1.1873 551.73C0.872403 551.73 0.570412 551.855 0.34775 552.078C0.125088 552.301 0 552.603 0 552.918C0 553.233 0.125088 553.535 0.34775 553.758C0.570412 553.98 0.872403 554.106 1.1873 554.106V554.106Z" fill="#CACACA"/>
<path d="M419.946 288.678C417.916 288.752 415.995 289.616 414.591 291.085C413.188 292.555 412.413 294.514 412.431 296.546C412.442 296.959 412.486 297.371 412.564 297.776L389.132 311.614L391.969 325.978L422.018 303.55C423.675 303.096 425.135 302.106 426.17 300.734C427.204 299.363 427.756 297.687 427.739 295.969C427.72 294.991 427.508 294.027 427.117 293.131C426.725 292.235 426.161 291.425 425.456 290.748C424.751 290.07 423.92 289.538 423.01 289.182C422.099 288.825 421.128 288.652 420.151 288.671C420.082 288.672 420.014 288.674 419.946 288.678Z" fill="#FFB6B6"/>
<path d="M400.751 321.667C400.124 320.827 399.855 320.475 399.713 320.571C399.346 320.793 399.699 323.761 397.118 328.933C393.485 336.199 355.393 347.328 355.393 347.328L350.703 338.74L330.074 300.996L322.963 270.744C322.715 269.689 322.594 268.608 322.604 267.524C328.943 263.061 335.676 259.185 342.718 255.943C345.532 257.539 347.677 260.096 348.761 263.145L362.961 302.972L368.628 318.874C368.628 318.874 378.623 311.724 382.249 313.037C385.869 314.357 386.898 312.506 384.532 306.578C382.165 300.651 385.717 306.752 389.85 307.14C393.991 307.534 389.85 307.14 391.806 304.625C393.762 302.11 406.409 300.694 406.409 300.694L406.678 301.256L411.579 311.34L412.982 314.238C412.982 314.238 407.786 319.877 406.533 321.001C405.273 322.133 404.884 322.054 405.501 323.344C406.109 324.628 402.928 324.569 400.751 321.667Z" fill="#6C63FF"/>
</g>
<defs>
<clipPath id="clip0_100_64">
<rect width="749" height="555" fill="white"/>
</clipPath>
</defs>
</svg>
