<svg width="602" height="406" viewBox="0 0 602 406" fill="none" xmlns="http://www.w3.org/2000/svg">
<g clip-path="url(#clip0_101_94)">
<path d="M62.2649 395.763L72.2562 395.762L77.0097 359.09L62.2627 359.091L62.2649 395.763Z" fill="#FFB6B6"/>
<path d="M61.9126 405.681L92.639 405.679V405.31C92.6388 402.292 91.3787 399.397 89.1359 397.263C86.8931 395.129 83.8513 393.93 80.6795 393.93H80.6787L75.0662 389.879L64.5943 393.931L61.9121 393.931L61.9126 405.681Z" fill="#2F2E41"/>
<path d="M78.3999 351.394L86.266 357.256L113.775 331.177L102.165 322.524L78.3999 351.394Z" fill="#FFB6B6"/>
<path d="M71.6948 358.995L95.884 377.024L96.1236 376.733C98.0794 374.357 98.9632 371.339 98.5807 368.343C98.1982 365.347 96.5806 362.618 94.0838 360.757L94.0832 360.756L92.2907 354.274L81.4209 351.319L79.3093 349.745L71.6948 358.995Z" fill="#2F2E41"/>
<path d="M125.442 184.303C125.442 184.303 138.704 197.389 132.81 227.766L137.758 279.779L139.035 282.187C139.796 283.622 140.061 285.249 139.794 286.835C139.527 288.422 138.74 289.888 137.545 291.025V291.025L136.493 294.129L135.511 300.204L98.9196 352.547L84.9216 338.527L107.515 289.455L101.375 276.837L87.1318 232.907L77.3087 313.29L79.2733 382.457H60.472L48.8214 305.345L36.5425 196.921L42.9295 184.303H125.442Z" fill="#2F2E41"/>
<path d="M39.6046 206.788L39.4706 206.609C32.3142 197.075 43.0774 174.167 44.7008 170.846C42.7731 170.251 41.1219 169.038 40.0283 167.415C38.9347 165.791 38.4665 163.857 38.7032 161.942L39.403 156.282L40.1325 150.73L34.9067 145.758L34.892 145.634L31.8847 120.595L27.5121 103.965C25.8646 97.6783 26.005 91.0875 27.9189 84.8694C29.8329 78.6513 33.4514 73.0298 38.4031 68.582L48.5103 67.0549L60.7936 55.7936H80.602L87.3939 61.968C100.073 64.0839 102.251 63.393 113.142 75.8284L108.193 114.49L106.959 119.809L106.962 127.023L110.101 130.342C111.231 131.538 112.053 132.968 112.5 134.519C112.947 136.07 113.007 137.699 112.676 139.276L112.263 141.24C115.5 142.56 118.589 166.017 119.327 169.294L120.429 174.189C121.372 175.373 127.597 183.271 127.597 185.43C127.597 185.754 127.346 186.067 126.806 186.415C122.564 189.148 105.65 208.538 95.2727 204.586C84.2184 200.381 40.2757 206.69 39.8329 206.754L39.6046 206.788Z" fill="#3F3D56"/>
<path d="M36.9432 161.83C36.9432 161.83 42.03 134.476 36.9054 124.188L16.5757 125.57L19.6696 164.594L37.4415 207.923C37.1702 209.258 37.275 210.637 37.7452 211.921C38.2154 213.205 39.0343 214.348 40.1187 215.233C41.2031 216.119 42.5144 216.716 43.9195 216.963C45.3246 217.21 46.7735 217.1 48.1191 216.642C49.4646 216.184 50.6589 215.396 51.5808 214.357C52.5026 213.318 53.1192 212.066 53.3678 210.727C53.6165 209.388 53.4883 208.01 52.9965 206.733C52.5046 205.457 51.6666 204.327 50.5673 203.458L36.9432 161.83Z" fill="#FFB6B6"/>
<path d="M16.5757 109.68L17.8339 96.6431C18.3074 91.7363 19.7958 86.9671 22.2135 82.6097C24.6312 78.2522 27.9304 74.3926 31.9215 71.2528V71.2528C34.4012 69.3164 37.4007 68.0785 40.5811 67.6791C43.7614 67.2796 46.9958 67.7345 49.9187 68.9923V68.9923C53.8688 70.7227 56.981 73.8158 58.626 77.6461C60.271 81.4764 60.3261 85.7582 58.78 89.6257C54.0813 101.351 55.778 113.751 46.616 115.263L47.6114 119.769L38.6029 147.742L12.9453 144.914L16.5757 109.68Z" fill="#3F3D56"/>
<path d="M151.897 148.865C151.897 148.865 137.006 124.971 126.07 120.352L111.605 134.014L140.696 161.679L183.865 183.499C184.574 184.68 185.599 185.66 186.835 186.342C188.072 187.024 189.476 187.382 190.905 187.38C192.334 187.379 193.737 187.017 194.972 186.333C196.206 185.649 197.229 184.666 197.935 183.484C198.642 182.302 199.007 180.963 198.994 179.603C198.98 178.244 198.589 176.912 197.86 175.742C197.131 174.573 196.09 173.608 194.842 172.945C193.594 172.283 192.184 171.946 190.756 171.97L151.897 148.865Z" fill="#FFB6B6"/>
<path d="M100.714 121.968L92.733 111.304C89.7291 107.29 87.5888 102.751 86.4353 97.9474C85.2818 93.1438 85.1377 88.1705 86.0115 83.3138V83.3138C86.5643 80.3071 87.9898 77.5074 90.1271 75.2311C92.2644 72.9549 95.0281 71.2927 98.1061 70.4326V70.4326C102.287 69.2934 106.766 69.7071 110.638 71.5902C114.51 73.4733 117.487 76.6851 118.965 80.5764C123.439 92.3812 139.759 111.783 133.849 118.614L137.692 121.412L143.499 137.155L122.11 150.932L100.714 121.968Z" fill="#3F3D56"/>
<path d="M69.361 50.3533C81.5105 50.3533 91.3597 40.9817 91.3597 29.4213C91.3597 17.8608 81.5105 8.48926 69.361 8.48926C57.2114 8.48926 47.3623 17.8608 47.3623 29.4213C47.3623 40.9817 57.2114 50.3533 69.361 50.3533Z" fill="#FFB6B6"/>
<path d="M53.3968 44.1752C53.2046 44.015 53.0231 43.8439 52.8353 43.6792C52.8285 43.6961 52.8275 43.7134 52.8203 43.7302L53.3968 44.1752Z" fill="#2F2E41"/>
<path d="M87.3889 7.31682C86.2959 5.64261 84.7819 4.25372 82.9837 3.27549C81.7546 2.70827 80.4631 2.27284 79.1329 1.97724L75.6514 1.07341C73.8676 0.548199 72.0324 0.196586 70.174 0.0239873C67.5932 -0.0971488 65.0272 0.458844 62.756 1.63123C60.4849 2.80361 58.596 4.5473 57.2957 6.67185C56.2439 8.44704 55.4002 10.6592 53.3701 11.3086C51.7332 11.8323 49.9472 11.0936 48.2269 11.2369C47.2188 11.3759 46.2623 11.7494 45.4422 12.3242C44.622 12.899 43.9636 13.6575 43.5251 14.5323C42.6677 16.2928 42.2458 18.2169 42.2916 20.1567C42.224 24.5609 43.1274 28.9296 44.9434 32.9811C46.7594 37.0326 49.4478 40.677 52.8352 43.679C53.4029 42.255 52.4678 40.7175 51.7285 39.3552C50.9805 37.9768 50.5182 36.0551 51.771 35.0624C53.1651 33.9577 55.3985 35.0289 57.0472 34.3085C57.5746 34.0202 58.0189 33.6122 58.3402 33.1207C58.6615 32.6293 58.8499 32.0698 58.8886 31.4922C59.0481 30.3476 58.8816 29.1842 58.9571 28.0318C59.0319 26.8896 59.3438 25.7727 59.8748 24.7458C60.4058 23.7188 61.1453 22.8021 62.0507 22.0487C62.9561 21.2952 64.0094 20.7199 65.1497 20.3559C66.2901 19.9919 67.495 19.8465 68.6947 19.928C72.4473 20.1831 76.0892 22.623 79.7004 21.6192C81.3956 21.1481 82.8414 19.9484 84.5946 19.7466C86.5362 19.5231 88.3627 20.5658 90.0114 21.5669C90.6104 19.1464 90.6869 16.6354 90.2361 14.186C89.7853 11.7365 88.8167 9.39961 87.3889 7.31682Z" fill="#2F2E41"/>
<path d="M163.654 393.92L158.056 385.361L156.938 390.252C156.742 391.109 156.546 391.979 156.364 392.843C154.774 391.551 153.082 390.356 151.427 389.209C146.345 385.699 141.265 382.185 136.187 378.666L137.777 387.44C138.757 392.843 139.781 398.356 142.206 403.295C142.475 403.855 142.765 404.408 143.078 404.947H166.704C166.894 404.446 167.025 403.927 167.096 403.399C167.102 403.365 167.104 403.33 167.103 403.295C167.473 399.945 165.527 396.787 163.654 393.92Z" fill="#F0F0F0"/>
<path d="M573.212 384.676L563.058 369.15L561.03 378.022C560.675 379.576 560.319 381.155 559.99 382.721C557.106 380.378 554.037 378.21 551.034 376.13C541.816 369.764 532.601 363.389 523.391 357.007L526.275 372.922C528.053 382.721 529.91 392.721 534.308 401.681C534.796 402.696 535.323 403.699 535.889 404.676H578.744C579.089 403.768 579.327 402.827 579.455 401.869C579.466 401.807 579.47 401.744 579.468 401.681C580.14 395.603 576.61 389.877 573.212 384.676Z" fill="#F0F0F0"/>
<path d="M601.135 405.788L0.864451 406C0.635602 405.999 0.416359 405.913 0.254772 405.758C0.0931863 405.604 0.00244141 405.395 0.00244141 405.177C0.00244141 404.96 0.0931863 404.751 0.254772 404.597C0.416359 404.442 0.635602 404.356 0.864451 404.355L601.135 404.143C601.364 404.143 601.584 404.23 601.745 404.384C601.907 404.539 601.998 404.747 601.998 404.965C601.998 405.183 601.907 405.392 601.745 405.546C601.584 405.7 601.364 405.787 601.135 405.788V405.788Z" fill="#CACACA"/>
<path d="M188.339 164.629V362.922C188.341 365.449 189.397 367.872 191.275 369.658C193.153 371.445 195.699 372.45 198.355 372.452H507.177C509.833 372.45 512.38 371.445 514.257 369.658C516.135 367.872 517.191 365.449 517.193 362.922V164.629C517.187 162.105 516.129 159.685 514.252 157.901C512.375 156.116 509.831 155.113 507.177 155.11H198.355C195.701 155.113 193.157 156.117 191.28 157.901C189.403 159.685 188.345 162.105 188.339 164.629V164.629Z" fill="#3F3D56"/>
<path d="M195.583 167.097V360.476C195.586 361.826 196.151 363.12 197.154 364.075C198.157 365.029 199.517 365.567 200.936 365.569H504.607C506.026 365.567 507.386 365.029 508.389 364.075C509.392 363.12 509.957 361.826 509.96 360.476V167.097C509.959 165.745 509.396 164.448 508.392 163.491C507.389 162.535 506.027 161.995 504.607 161.993H200.936C199.516 161.996 198.154 162.535 197.151 163.491C196.147 164.448 195.584 165.745 195.583 167.097V167.097Z" fill="white"/>
<path d="M181.88 401.594C182.446 402.269 183.165 402.813 183.983 403.186C184.802 403.558 185.698 403.75 186.606 403.745H517.282C518.186 403.744 519.079 403.551 519.895 403.181C520.711 402.81 521.431 402.271 522 401.603C522.57 400.934 522.976 400.154 523.189 399.317C523.401 398.481 523.415 397.61 523.23 396.768L518.097 373.568C517.884 372.622 517.426 371.741 516.764 371.007C516.102 370.272 515.258 369.707 514.308 369.362C513.62 369.105 512.888 368.974 512.149 368.974H191.718C190.979 368.974 190.247 369.105 189.559 369.362C188.609 369.707 187.765 370.272 187.103 371.007C186.441 371.741 185.983 372.622 185.77 373.568L180.637 396.768C180.455 397.61 180.471 398.479 180.686 399.314C180.901 400.149 181.309 400.928 181.88 401.594V401.594Z" fill="#2F2E41"/>
<path d="M499.971 378.967H509.446C509.642 378.967 509.801 378.816 509.801 378.63V373.49C509.801 373.304 509.642 373.153 509.446 373.153H499.971C499.775 373.153 499.616 373.304 499.616 373.49V378.63C499.616 378.816 499.775 378.967 499.971 378.967Z" fill="#3F3D56"/>
<path d="M479.601 378.967H489.077C489.272 378.967 489.431 378.816 489.431 378.63V373.49C489.431 373.304 489.272 373.153 489.077 373.153H479.601C479.405 373.153 479.246 373.304 479.246 373.49V378.63C479.246 378.816 479.405 378.967 479.601 378.967Z" fill="#3F3D56"/>
<path d="M459.232 378.967H468.708C468.903 378.967 469.062 378.816 469.062 378.63V373.49C469.062 373.304 468.903 373.153 468.708 373.153H459.232C459.036 373.153 458.877 373.304 458.877 373.49V378.63C458.877 378.816 459.036 378.967 459.232 378.967Z" fill="#3F3D56"/>
<path d="M438.862 378.967H448.338C448.534 378.967 448.692 378.816 448.692 378.63V373.49C448.692 373.304 448.534 373.153 448.338 373.153H438.862C438.666 373.153 438.508 373.304 438.508 373.49V378.63C438.508 378.816 438.666 378.967 438.862 378.967Z" fill="#3F3D56"/>
<path d="M418.493 378.967H427.969C428.165 378.967 428.323 378.816 428.323 378.63V373.49C428.323 373.304 428.165 373.153 427.969 373.153H418.493C418.297 373.153 418.139 373.304 418.139 373.49V378.63C418.139 378.816 418.297 378.967 418.493 378.967Z" fill="#3F3D56"/>
<path d="M398.123 378.967H407.599C407.795 378.967 407.954 378.816 407.954 378.63V373.49C407.954 373.304 407.795 373.153 407.599 373.153H398.123C397.928 373.153 397.769 373.304 397.769 373.49V378.63C397.769 378.816 397.928 378.967 398.123 378.967Z" fill="#3F3D56"/>
<path d="M377.754 378.967H387.23C387.426 378.967 387.584 378.816 387.584 378.63V373.49C387.584 373.304 387.426 373.153 387.23 373.153H377.754C377.558 373.153 377.4 373.304 377.4 373.49V378.63C377.4 378.816 377.558 378.967 377.754 378.967Z" fill="#3F3D56"/>
<path d="M357.385 378.967H366.86C367.056 378.967 367.215 378.816 367.215 378.63V373.49C367.215 373.304 367.056 373.153 366.86 373.153H357.385C357.189 373.153 357.03 373.304 357.03 373.49V378.63C357.03 378.816 357.189 378.967 357.385 378.967Z" fill="#3F3D56"/>
<path d="M337.015 378.967H346.491C346.687 378.967 346.846 378.816 346.846 378.63V373.49C346.846 373.304 346.687 373.153 346.491 373.153H337.015C336.82 373.153 336.661 373.304 336.661 373.49V378.63C336.661 378.816 336.82 378.967 337.015 378.967Z" fill="#3F3D56"/>
<path d="M316.646 378.967H326.122C326.317 378.967 326.476 378.816 326.476 378.63V373.49C326.476 373.304 326.317 373.153 326.122 373.153H316.646C316.45 373.153 316.291 373.304 316.291 373.49V378.63C316.291 378.816 316.45 378.967 316.646 378.967Z" fill="#3F3D56"/>
<path d="M296.277 378.967H305.752C305.948 378.967 306.107 378.816 306.107 378.63V373.49C306.107 373.304 305.948 373.153 305.752 373.153H296.277C296.081 373.153 295.922 373.304 295.922 373.49V378.63C295.922 378.816 296.081 378.967 296.277 378.967Z" fill="#3F3D56"/>
<path d="M275.907 378.967H285.383C285.579 378.967 285.737 378.816 285.737 378.63V373.49C285.737 373.304 285.579 373.153 285.383 373.153H275.907C275.711 373.153 275.553 373.304 275.553 373.49V378.63C275.553 378.816 275.711 378.967 275.907 378.967Z" fill="#3F3D56"/>
<path d="M255.538 378.967H265.014C265.209 378.967 265.368 378.816 265.368 378.63V373.49C265.368 373.304 265.209 373.153 265.014 373.153H255.538C255.342 373.153 255.183 373.304 255.183 373.49V378.63C255.183 378.816 255.342 378.967 255.538 378.967Z" fill="#3F3D56"/>
<path d="M235.168 378.967H244.644C244.84 378.967 244.999 378.816 244.999 378.63V373.49C244.999 373.304 244.84 373.153 244.644 373.153H235.168C234.973 373.153 234.814 373.304 234.814 373.49V378.63C234.814 378.816 234.973 378.967 235.168 378.967Z" fill="#3F3D56"/>
<path d="M214.799 378.967H224.275C224.471 378.967 224.629 378.816 224.629 378.63V373.49C224.629 373.304 224.471 373.153 224.275 373.153H214.799C214.603 373.153 214.445 373.304 214.445 373.49V378.63C214.445 378.816 214.603 378.967 214.799 378.967Z" fill="#3F3D56"/>
<path d="M194.43 378.967H203.905C204.101 378.967 204.26 378.816 204.26 378.63V373.49C204.26 373.304 204.101 373.153 203.905 373.153H194.43C194.234 373.153 194.075 373.304 194.075 373.49V378.63C194.075 378.816 194.234 378.967 194.43 378.967Z" fill="#3F3D56"/>
<path d="M500.211 388.658H509.687C509.883 388.658 510.042 388.507 510.042 388.321V383.181C510.042 382.995 509.883 382.844 509.687 382.844H500.211C500.016 382.844 499.857 382.995 499.857 383.181V388.321C499.857 388.507 500.016 388.658 500.211 388.658Z" fill="#3F3D56"/>
<path d="M479.842 388.658H489.317C489.513 388.658 489.672 388.507 489.672 388.321V383.181C489.672 382.995 489.513 382.844 489.317 382.844H479.842C479.646 382.844 479.487 382.995 479.487 383.181V388.321C479.487 388.507 479.646 388.658 479.842 388.658Z" fill="#3F3D56"/>
<path d="M459.473 388.658H468.948C469.144 388.658 469.303 388.507 469.303 388.321V383.181C469.303 382.995 469.144 382.844 468.948 382.844H459.473C459.277 382.844 459.118 382.995 459.118 383.181V388.321C459.118 388.507 459.277 388.658 459.473 388.658Z" fill="#3F3D56"/>
<path d="M439.103 388.658H448.579C448.774 388.658 448.933 388.507 448.933 388.321V383.181C448.933 382.995 448.774 382.844 448.579 382.844H439.103C438.907 382.844 438.748 382.995 438.748 383.181V388.321C438.748 388.507 438.907 388.658 439.103 388.658Z" fill="#3F3D56"/>
<path d="M418.734 388.658H428.209C428.405 388.658 428.564 388.507 428.564 388.321V383.181C428.564 382.995 428.405 382.844 428.209 382.844H418.734C418.538 382.844 418.379 382.995 418.379 383.181V388.321C418.379 388.507 418.538 388.658 418.734 388.658Z" fill="#3F3D56"/>
<path d="M398.364 388.658H407.84C408.036 388.658 408.194 388.507 408.194 388.321V383.181C408.194 382.995 408.036 382.844 407.84 382.844H398.364C398.168 382.844 398.01 382.995 398.01 383.181V388.321C398.01 388.507 398.168 388.658 398.364 388.658Z" fill="#3F3D56"/>
<path d="M377.995 388.658H387.471C387.667 388.658 387.825 388.507 387.825 388.321V383.181C387.825 382.995 387.667 382.844 387.471 382.844H377.995C377.799 382.844 377.641 382.995 377.641 383.181V388.321C377.641 388.507 377.799 388.658 377.995 388.658Z" fill="#3F3D56"/>
<path d="M357.625 388.658H367.101C367.297 388.658 367.456 388.507 367.456 388.321V383.181C367.456 382.995 367.297 382.844 367.101 382.844H357.625C357.43 382.844 357.271 382.995 357.271 383.181V388.321C357.271 388.507 357.43 388.658 357.625 388.658Z" fill="#3F3D56"/>
<path d="M337.256 388.658H346.732C346.928 388.658 347.086 388.507 347.086 388.321V383.181C347.086 382.995 346.928 382.844 346.732 382.844H337.256C337.06 382.844 336.902 382.995 336.902 383.181V388.321C336.902 388.507 337.06 388.658 337.256 388.658Z" fill="#3F3D56"/>
<path d="M316.887 388.658H326.362C326.558 388.658 326.717 388.507 326.717 388.321V383.181C326.717 382.995 326.558 382.844 326.362 382.844H316.887C316.691 382.844 316.532 382.995 316.532 383.181V388.321C316.532 388.507 316.691 388.658 316.887 388.658Z" fill="#3F3D56"/>
<path d="M296.517 388.658H305.993C306.189 388.658 306.348 388.507 306.348 388.321V383.181C306.348 382.995 306.189 382.844 305.993 382.844H296.517C296.322 382.844 296.163 382.995 296.163 383.181V388.321C296.163 388.507 296.322 388.658 296.517 388.658Z" fill="#3F3D56"/>
<path d="M276.148 388.658H285.624C285.819 388.658 285.978 388.507 285.978 388.321V383.181C285.978 382.995 285.819 382.844 285.624 382.844H276.148C275.952 382.844 275.793 382.995 275.793 383.181V388.321C275.793 388.507 275.952 388.658 276.148 388.658Z" fill="#3F3D56"/>
<path d="M255.779 388.658H265.254C265.45 388.658 265.609 388.507 265.609 388.321V383.181C265.609 382.995 265.45 382.844 265.254 382.844H255.779C255.583 382.844 255.424 382.995 255.424 383.181V388.321C255.424 388.507 255.583 388.658 255.779 388.658Z" fill="#3F3D56"/>
<path d="M235.409 388.658H244.885C245.081 388.658 245.239 388.507 245.239 388.321V383.181C245.239 382.995 245.081 382.844 244.885 382.844H235.409C235.213 382.844 235.055 382.995 235.055 383.181V388.321C235.055 388.507 235.213 388.658 235.409 388.658Z" fill="#3F3D56"/>
<path d="M215.04 388.658H224.516C224.711 388.658 224.87 388.507 224.87 388.321V383.181C224.87 382.995 224.711 382.844 224.516 382.844H215.04C214.844 382.844 214.685 382.995 214.685 383.181V388.321C214.685 388.507 214.844 388.658 215.04 388.658Z" fill="#3F3D56"/>
<path d="M194.67 388.658H204.146C204.342 388.658 204.5 388.507 204.5 388.321V383.181C204.5 382.995 204.342 382.844 204.146 382.844H194.67C194.474 382.844 194.316 382.995 194.316 383.181V388.321C194.316 388.507 194.474 388.658 194.67 388.658Z" fill="#3F3D56"/>
<path d="M308.637 400.287H389.406C389.602 400.287 389.76 400.136 389.76 399.95V394.81C389.76 394.624 389.602 394.473 389.406 394.473H308.637C308.441 394.473 308.283 394.624 308.283 394.81V399.95C308.283 400.136 308.441 400.287 308.637 400.287Z" fill="#3F3D56"/>
<path d="M421.951 279.134C421.917 295.458 415.467 311.18 403.868 323.209C392.269 335.237 376.362 342.702 359.272 344.137C342.182 345.571 325.146 340.87 311.514 330.959C297.882 321.047 288.639 306.642 285.603 290.575C282.567 274.509 285.958 257.942 295.108 244.134C304.258 230.325 318.506 220.272 335.05 215.952C351.595 211.632 369.239 213.357 384.515 220.788C399.791 228.219 411.592 240.819 417.6 256.11C417.75 256.494 417.896 256.878 418.038 257.265V257.269C418.672 258.973 419.231 260.709 419.714 262.476C421.204 267.915 421.955 273.513 421.951 279.134V279.134Z" fill="#3F3D56"/>
<path d="M345.203 234.722C342.094 233.123 338.642 232.22 335.111 232.082C331.579 231.945 328.062 232.577 324.826 233.929C321.977 235.109 318.977 237.225 318.026 241.047C321.87 238.889 326.846 242.299 327.835 247.77L327.605 247.831C327.082 251.621 328.248 255.747 330.506 258.096C330.674 257.036 331.088 256.025 331.718 255.136C332.348 254.247 333.178 253.502 334.148 252.957C335.807 251.919 337.643 251.165 338.909 249.382C340.41 247.267 340.791 244.177 341.388 241.357C341.984 238.538 343.115 235.508 345.203 234.722Z" fill="#6C63FF"/>
<path d="M323.686 266.971C322.621 268.492 321.199 269.446 319.923 270.635C318.45 271.91 317.484 273.629 317.187 275.502C317.025 276.826 317.275 278.172 317.24 279.51C317.206 280.849 316.737 282.355 315.78 282.688C314.27 283.207 313.117 280.538 311.564 280.351C310.33 280.205 309.22 282.052 309.577 283.654C309.934 285.255 311.614 285.965 312.579 284.919C313.451 286.312 312.836 288.839 311.525 289.267C311.387 290.145 311.249 291.019 311.114 291.896C307.801 289.691 304.454 287.45 301.637 284.22C298.504 280.66 296.56 276.289 296.056 271.67C295.691 267.958 296.233 263.712 294.442 260.856C293.009 258.571 290.549 258.066 288.335 258.209C287.932 258.234 287.524 258.278 287.121 258.326C288.426 254.595 290.084 250.984 292.075 247.538C292.525 247.354 292.944 247.106 293.316 246.803C295.376 245.139 296.291 241.771 297.963 239.441C298.07 239.291 298.182 239.145 298.297 239.002C300.007 236.878 302.298 235.784 304.511 234.768C309.412 232.504 314.454 230.211 319.627 230.526L318.155 230.661C316.437 235.239 314.718 239.818 312.997 244.396C312.736 245.099 312.472 245.802 312.206 246.506C311.23 249.11 310.223 251.882 310.372 254.797C310.461 256.523 311.091 258.366 312.29 258.958C313.409 259.507 314.631 258.834 315.711 258.168C316.168 257.89 316.622 257.613 317.079 257.331C318.72 256.325 320.538 255.294 322.271 255.967C323.859 256.581 325.031 258.633 325.254 260.845C325.458 262.996 324.907 265.15 323.686 266.971V266.971Z" fill="#6C63FF"/>
<path d="M333.446 298.229C328.653 295.421 323.86 292.613 319.067 289.805L319.148 289.606C316.168 290.686 314.931 295.726 315.423 299.848C315.916 303.97 317.586 307.655 318.43 311.671C319.567 317.167 319.138 322.853 317.186 328.138C323.489 321.409 329.066 314.096 333.835 306.308C334.502 305.327 335.009 304.256 335.341 303.131C335.693 301.932 335.568 300.652 334.989 299.536C334.597 298.985 334.066 298.536 333.446 298.229V298.229Z" fill="#6C63FF"/>
<path d="M314.53 247.143C313.967 248.293 313.88 249.603 314.287 250.811C314.76 251.784 315.618 252.54 316.674 252.914L319.322 254.163C320.203 254.579 321.153 254.998 322.051 254.657C323.134 254.244 323.885 252.628 323.691 251.128C323.484 249.532 322.427 248.434 321.449 247.498C320.08 246.19 318.711 244.881 317.342 243.573L316.571 244.472C315.737 245.246 315.046 246.149 314.53 247.143V247.143Z" fill="#6C63FF"/>
<path d="M407.754 264.21C408.945 264.477 410.136 264.744 411.328 265.01C411.12 268.839 409.126 272.383 406.451 273.666C405.336 274.2 404.095 274.398 403.172 275.396C402.338 276.303 401.916 277.715 401.527 279.064C400.847 281.419 400.167 283.774 399.487 286.129C398.756 288.667 397.819 291.487 395.92 292.401C394.291 293.187 392.427 292.225 391.174 290.613C389.921 289 389.156 286.831 388.414 284.718C388.46 287.022 387.334 289.282 385.739 290.082C384.14 290.883 382.196 290.159 381.127 288.371C380.359 287.087 380.04 285.394 379.286 284.092C378.533 282.791 376.954 282.045 376.131 283.266C375.589 284.078 375.658 285.321 375.389 286.352C375.254 287.037 374.898 287.665 374.37 288.148C373.842 288.631 373.17 288.945 372.445 289.048C371.779 289.033 371.123 288.89 370.518 288.626C369.912 288.363 369.369 287.985 368.921 287.515C366.568 285.225 365.035 282.284 364.544 279.115C364.21 277.596 364.252 276.024 364.667 274.522C365.139 273.1 366.281 272.003 367.414 272.273C368.16 270.774 366.688 268.784 365.362 268.96C364.032 269.136 362.991 270.492 361.899 271.534C360.812 272.577 359.29 273.334 358.194 272.299C358.207 272.496 358.177 272.693 358.106 272.878C358.034 273.063 357.924 273.233 357.78 273.375C357.637 273.518 357.464 273.63 357.273 273.706C357.082 273.782 356.876 273.82 356.669 273.816C355.94 273.617 355.264 273.276 354.682 272.814C352.172 271.326 348.986 272.313 347.203 275.129C348.317 270.617 349.951 265.438 353.375 264.378C354.774 263.943 356.3 264.301 357.622 263.548C359.962 262.213 360.435 257.17 358.414 255.089C358.671 257.057 358.621 259.353 357.53 260.699C356.438 262.045 354.147 261.167 354.286 259.178C354.255 259.458 354.131 259.721 353.934 259.93C353.736 260.139 353.473 260.283 353.184 260.341C352.895 260.4 352.593 260.37 352.323 260.255C352.053 260.141 351.828 259.948 351.68 259.704C350.954 258.651 351.015 256.929 351.53 255.671C352.061 254.531 352.822 253.503 353.771 252.643C355.596 250.781 357.449 248.898 359.563 247.728C361.68 246.558 364.125 246.163 366.246 247.326C367.365 247.94 368.348 248.964 369.49 249.505C369.763 249.667 370.068 249.774 370.386 249.821C370.704 249.869 371.029 249.855 371.341 249.78C371.653 249.706 371.946 249.573 372.203 249.389C372.461 249.204 372.676 248.973 372.837 248.708C373.687 247.289 373.287 245.183 373.602 243.409C374.167 240.275 377.461 238.809 379.286 240.878C377.922 240.546 376.512 242.082 376.342 243.943C376.17 245.804 377.157 247.684 378.479 248.247C380.701 249.183 382.876 246.828 384.556 244.649C386.308 242.367 388.063 240.086 389.821 237.807C390.101 237.419 390.417 237.054 390.762 236.717C391.313 236.206 392.047 235.914 392.815 235.899C393.584 235.884 394.33 236.148 394.902 236.636C396.677 238.015 397.511 240.842 398.968 242.787C401.082 245.614 404.245 246.302 407.189 246.85C409.383 247.256 411.579 247.665 413.776 248.075C415.241 250.668 416.518 253.352 417.6 256.11C413.571 257.858 410.154 260.669 407.754 264.21V264.21Z" fill="#6C63FF"/>
<path d="M419.714 262.476C419.264 263.739 419.017 265.06 418.984 266.393C417.1 264.206 416.801 260.107 418.038 257.269C418.672 258.973 419.231 260.709 419.714 262.476Z" fill="#6C63FF"/>
<path d="M414.848 308.21C413.202 311.391 411.287 314.44 409.122 317.327C407.738 316.764 406.251 317.769 404.956 318.713C403.603 319.7 401.977 320.662 400.59 319.762C399.172 318.841 398.714 316.263 399.164 314.218C399.681 312.333 400.585 310.563 401.823 309.011C402.976 307.373 404.21 305.672 405.813 305.036C407.419 304.399 409.483 305.299 409.952 307.471L411.09 307.435C410.452 306.601 410.786 304.875 411.643 304.571C412.631 304.217 413.488 305.507 414.072 306.648C414.333 307.164 414.599 307.683 414.848 308.21Z" fill="#6C63FF"/>
<path d="M371.279 292.763C368.834 292.91 366.897 290.045 365.61 287.228C364.323 284.41 363.148 281.188 360.942 279.753C359.681 278.934 358.244 278.821 356.876 278.424C356.101 278.238 355.383 277.878 354.783 277.375C354.182 276.872 353.717 276.24 353.424 275.532L351.873 274.936C349.703 275.968 347.716 277.316 345.984 278.931C344.004 280.932 342.771 283.497 342.475 286.231C342.178 289.185 343.273 292.479 345.317 293.589C346.932 294.466 348.813 293.913 350.45 294.716C352.494 295.719 353.708 298.632 354.167 301.509C354.627 304.386 354.51 307.375 354.839 310.285C355.168 313.194 356.074 316.222 357.948 317.712C360.295 319.578 363.737 318.028 364.79 314.632C365.306 312.966 365.289 311.086 365.675 309.357C366.355 306.311 368.19 304.052 369.645 301.554C371.101 299.055 372.247 295.663 371.279 292.763Z" fill="#6C63FF"/>
<path d="M347.116 262.838C347.344 263.038 347.557 263.253 347.753 263.481C347.956 263.814 348.059 264.193 348.053 264.578C348.046 264.962 347.929 265.338 347.714 265.663C348.009 265.648 348.296 265.574 348.559 265.446C348.822 265.319 349.055 265.142 349.242 264.925C349.688 264.441 350.081 263.915 350.413 263.354C350.57 263.162 350.682 262.941 350.741 262.705C350.801 262.469 350.807 262.223 350.759 261.985C350.643 261.671 350.37 261.537 350.179 261.301C349.913 260.84 349.732 260.339 349.643 259.82C349.537 259.334 349.29 258.885 348.931 258.525C348.571 258.164 348.113 257.907 347.608 257.78L347.731 257.802C347.522 257.92 347.358 258.097 347.26 258.308C347.162 258.52 347.137 258.755 347.186 258.981C347.261 259.437 347.569 259.816 347.538 260.281C347.494 260.95 346.791 261.265 346.748 261.934C346.741 262.27 346.873 262.594 347.116 262.838V262.838Z" fill="#6C63FF"/>
<path d="M342.927 251.465L342.938 251.463C343.013 251.398 343.083 251.327 343.147 251.251L342.927 251.465Z" fill="#6C63FF"/>
<path d="M343.66 254.606C343.953 254.361 344.171 254.044 344.288 253.689C344.405 253.335 344.417 252.956 344.324 252.595C344.146 251.834 343.517 251.322 342.937 251.463C342.769 251.625 342.56 251.744 342.331 251.809C342.101 251.873 341.857 251.881 341.624 251.831C341.265 251.743 340.872 251.517 340.561 251.774C340.383 251.966 340.258 252.197 340.199 252.447C340.083 252.783 339.968 253.119 339.853 253.455C339.799 253.576 339.784 253.709 339.812 253.837C339.834 253.889 339.87 253.934 339.916 253.969C339.961 254.003 340.016 254.026 340.073 254.035C340.764 254.228 341.454 254.422 342.145 254.616C342.383 254.72 342.642 254.773 342.903 254.772C343.165 254.77 343.423 254.714 343.66 254.606V254.606Z" fill="#6C63FF"/>
<path d="M395.791 297.977C395.472 297.48 395.152 296.983 394.833 296.485C394.52 295.91 394.091 295.397 393.571 294.978C393.457 294.887 393.325 294.818 393.182 294.777C393.04 294.735 392.89 294.721 392.742 294.735C392.593 294.749 392.45 294.791 392.319 294.859C392.188 294.927 392.072 295.019 391.979 295.13L392.018 295.414C392.873 296.286 393.456 297.367 393.7 298.536C393.773 299.044 393.748 299.57 393.812 300.081C393.818 300.317 393.874 300.55 393.975 300.767C394.077 300.983 394.222 301.178 394.403 301.34C394.906 301.66 395.496 301.189 395.853 300.614C396.173 300.142 396.317 299.581 396.261 299.022C396.181 298.647 396.021 298.291 395.791 297.977Z" fill="#6C63FF"/>
<path d="M400.799 298.624C400.859 298.159 400.82 297.686 400.682 297.236C400.659 296.627 400.829 296.025 401.169 295.508C401.507 295.021 401.764 294.486 401.929 293.924C401.998 293.668 401.985 293.397 401.892 293.148C401.786 292.922 401.531 292.819 401.384 292.998L401.698 293.191C401.274 293.118 400.838 293.139 400.423 293.249C400.186 293.335 399.975 293.475 399.807 293.655C399.639 293.835 399.519 294.052 399.457 294.286C399.405 294.65 399.32 295.01 399.203 295.361C399.016 295.727 398.653 295.849 398.425 296.171C398.27 296.456 398.191 296.774 398.197 297.095C398.203 297.416 398.292 297.731 398.457 298.011C398.744 298.469 399.199 298.81 399.734 298.966C400.118 299.097 400.623 299.104 400.799 298.624Z" fill="#6C63FF"/>
<path d="M409.716 301.184C409.854 301.528 410.04 301.852 410.268 302.149C410.695 302.559 411.275 302.307 411.793 302.208C412.263 302.137 412.744 302.189 413.186 302.357C413.628 302.526 414.013 302.805 414.302 303.165C414.101 302.212 413.662 301.318 413.023 300.56C412.384 299.801 411.563 299.2 410.63 298.806C409.416 298.406 408.137 298.216 406.853 298.244L406.634 298.297C407.193 299.845 408.948 299.811 409.716 301.184Z" fill="#6C63FF"/>
<path d="M371.948 304.35L371.951 304.357L372.014 304.24L371.948 304.35Z" fill="#6C63FF"/>
<path d="M370.595 306.842C370.3 307.352 370.046 307.882 369.836 308.428C369.557 309.313 369.373 310.223 369.286 311.143C369.217 311.666 369.196 312.334 369.54 312.589C369.639 312.651 369.759 312.677 369.876 312.662C369.994 312.647 370.102 312.592 370.179 312.506C370.371 312.314 370.527 312.092 370.643 311.851C371.32 310.741 371.845 309.554 372.207 308.319C372.584 307.007 372.494 305.614 371.951 304.357C371.499 305.185 371.047 306.014 370.595 306.842Z" fill="#6C63FF"/>
<path d="M357.544 240.463C357.759 240.663 358.031 240.798 358.326 240.853C358.621 240.908 358.926 240.879 359.204 240.771C359.78 240.531 360.308 240.199 360.766 239.789C361.145 239.523 361.466 239.189 361.713 238.807C361.848 238.578 361.935 238.327 361.969 238.066C362.002 237.805 361.981 237.541 361.906 237.288C361.8 237.046 361.631 236.834 361.415 236.671C361.199 236.508 360.943 236.401 360.671 236.359C359.905 236.142 359.138 235.926 358.372 235.71L358.926 235.234C358.356 234.943 357.724 235.484 357.368 236.153C357.139 236.59 356.98 237.057 356.895 237.538C356.774 238.042 356.769 238.564 356.881 239.069C356.993 239.574 357.22 240.049 357.544 240.463V240.463Z" fill="#6C63FF"/>
<path d="M371.076 236.14C371.292 236.367 371.591 236.507 371.911 236.531C372.232 236.556 372.55 236.464 372.802 236.274C373.019 236.119 373.199 235.922 373.33 235.697C373.462 235.472 373.542 235.222 373.565 234.966C373.62 234.392 373.321 233.754 372.896 233.705L372.993 233.168C372.173 233.027 371.164 232.998 370.724 233.946C370.576 234.309 370.53 234.703 370.592 235.088C370.654 235.473 370.821 235.836 371.076 236.14V236.14Z" fill="#6C63FF"/>
<path d="M493.382 197.001H212.162C211.969 196.997 211.786 196.921 211.651 196.79C211.516 196.659 211.44 196.483 211.44 196.299C211.44 196.116 211.516 195.94 211.651 195.809C211.786 195.677 211.969 195.602 212.162 195.598H493.382C493.575 195.602 493.758 195.677 493.893 195.809C494.028 195.94 494.103 196.116 494.103 196.299C494.103 196.483 494.028 196.659 493.893 196.79C493.758 196.921 493.575 196.997 493.382 197.001Z" fill="#CACACA"/>
<path d="M228.392 187.18C232.773 187.18 236.325 183.726 236.325 179.464C236.325 175.203 232.773 171.748 228.392 171.748C224.011 171.748 220.46 175.203 220.46 179.464C220.46 183.726 224.011 187.18 228.392 187.18Z" fill="#3F3D56"/>
<path d="M255.796 187.18C260.177 187.18 263.728 183.726 263.728 179.464C263.728 175.203 260.177 171.748 255.796 171.748C251.415 171.748 247.863 175.203 247.863 179.464C247.863 183.726 251.415 187.18 255.796 187.18Z" fill="#3F3D56"/>
<path d="M283.199 187.18C287.58 187.18 291.131 183.726 291.131 179.464C291.131 175.203 287.58 171.748 283.199 171.748C278.818 171.748 275.266 175.203 275.266 179.464C275.266 183.726 278.818 187.18 283.199 187.18Z" fill="#3F3D56"/>
<path d="M476.96 173.661H457.495C457.109 173.668 456.741 173.819 456.471 174.081C456.201 174.343 456.05 174.696 456.05 175.063C456.05 175.43 456.201 175.783 456.471 176.045C456.741 176.307 457.109 176.458 457.495 176.466H476.96C477.346 176.458 477.714 176.307 477.984 176.045C478.254 175.783 478.405 175.43 478.405 175.063C478.405 174.696 478.254 174.343 477.984 174.081C477.714 173.819 477.346 173.668 476.96 173.661V173.661Z" fill="#3F3D56"/>
<path d="M476.96 178.925H457.495C457.109 178.932 456.741 179.083 456.471 179.346C456.201 179.608 456.05 179.96 456.05 180.327C456.05 180.695 456.201 181.047 456.471 181.309C456.741 181.572 457.109 181.723 457.495 181.73H476.96C477.346 181.723 477.714 181.572 477.984 181.309C478.254 181.047 478.405 180.695 478.405 180.327C478.405 179.96 478.254 179.608 477.984 179.346C477.714 179.083 477.346 178.932 476.96 178.925V178.925Z" fill="#3F3D56"/>
<path d="M476.96 184.182H457.495C457.109 184.19 456.741 184.341 456.471 184.603C456.201 184.865 456.05 185.218 456.05 185.585C456.05 185.952 456.201 186.305 456.471 186.567C456.741 186.829 457.109 186.98 457.495 186.987H476.96C477.346 186.98 477.714 186.829 477.984 186.567C478.254 186.305 478.405 185.952 478.405 185.585C478.405 185.218 478.254 184.865 477.984 184.603C477.714 184.341 477.346 184.19 476.96 184.182V184.182Z" fill="#3F3D56"/>
<g opacity="0.35">
<path d="M500.832 282.377C505.359 280.499 496.179 279.406 485.765 279.046C475.351 278.687 462.753 278.707 456.097 277.684C449.661 276.696 450.135 274.938 449.594 273.345C449.052 271.752 446.578 270.119 436.534 269.765C424.018 269.324 403.379 271.022 393.931 270.002C385.114 269.051 390.355 266.066 377.499 265.952C370.157 265.887 360.7 266.871 352.531 267.108C346.741 267.347 340.94 267.06 335.207 266.249C331.225 265.628 328.452 264.841 323.971 264.293C312.206 262.854 289.189 263.337 268.646 265.182C248.102 267.027 230.492 270.05 220.561 273.045C210.629 276.039 207.886 278.987 210.199 281.487C211.676 283.084 215.456 284.576 224.626 285.218C241.778 286.418 272.314 284.353 290.037 285.444C299.915 286.053 304.297 287.561 312.964 288.387C322.275 289.273 335.906 289.32 349.298 289.299C377.181 289.255 405.778 288.983 434.938 288.483C447.118 288.274 459.88 288.003 472.84 287.008C485.8 286.013 499.019 284.093 501.754 282.293" fill="white"/>
</g>
</g>
<defs>
<clipPath id="clip0_101_94">
<rect width="602" height="406" fill="white"/>
</clipPath>
</defs>
</svg>
