<svg width="665" height="560" viewBox="0 0 665 560" fill="none" xmlns="http://www.w3.org/2000/svg">
<g clip-path="url(#clip0_105_263)">
<path d="M620.007 482.743L621.144 454.592C632.994 447.615 646.211 443.93 659.647 443.856C641.155 460.509 643.466 492.608 630.928 515.001C626.969 521.953 621.641 527.834 615.338 532.208C609.035 536.583 601.919 539.34 594.518 540.274L579.042 550.709C576.919 537.671 577.387 524.281 580.415 511.461C583.442 498.641 588.957 486.696 596.579 476.45C600.907 470.748 605.87 465.67 611.35 461.334C615.056 472.098 620.007 482.743 620.007 482.743Z" fill="#F2F2F2"/>
<path d="M385.34 557.717C377.458 557.099 375.402 558.812 363.477 557.717H341.614L344.458 500.091L378.877 515.282L549.917 519.906L549.816 520.226C549.739 520.472 542.145 544.937 548.081 554.202L548.327 554.586L547.847 554.591L390.944 556.175C389.231 556.193 387.039 557.85 385.34 557.717Z" fill="#F2F2F2"/>
<path d="M394.211 558.471C378.985 557.277 363.219 563.797 350.061 556.437L339.542 557.138L339.512 557.041C339.431 556.774 334.462 513.713 344.507 497.017L344.949 496.281L345.294 500.236L341.983 553.878L349.322 551.18C367.148 560.421 388.347 554.318 408.749 554.233L547.591 553.668C550.5 553.657 552.923 555.846 553 558.548L553.008 558.812L402.597 558.799C399.792 558.799 396.997 558.689 394.211 558.471Z" fill="#CCCCCC"/>
<path d="M540.273 531.528L384.027 528.108L383.867 528.042L346.952 512.804L347.649 510.754L384.406 525.927L540.313 529.339L540.273 531.528Z" fill="#E6E6E6"/>
<path d="M539.439 540.743L383.193 537.323L383.034 537.257L346.118 522.019L346.816 519.969L383.573 535.142L539.479 538.554L539.439 540.743Z" fill="#E6E6E6"/>
<path d="M538.605 549.959L382.359 546.538L382.2 546.472L345.284 531.233L345.982 529.183L382.739 544.357L538.645 547.77L538.605 549.959Z" fill="#E6E6E6"/>
<path d="M395.291 520.501C380.804 519.423 366.68 515.034 353.818 507.613L342.988 501.286L343.271 498.158C343.35 497.699 343.58 497.289 343.917 497.005C344.254 496.722 344.675 496.586 345.098 496.624L346.054 496.637L491.767 498.999C501.304 499.129 510.754 501.018 519.724 504.587L551.473 517.283L551.456 517.467C551.19 520.414 548.492 522.691 545.315 522.65L401.782 520.798C399.611 520.769 397.447 520.671 395.291 520.501Z" fill="#E6E6E6"/>
<path d="M551.168 517.96L551.135 517.958L376.398 513.548L376.277 513.487L344.772 497.418L345.092 496.88L346.049 496.893L376.69 512.53L549.807 516.895L551.194 516.931L551.168 517.96Z" fill="#CCCCCC"/>
<path d="M415.325 498.018L413.107 497.983L363.03 497.167L360.657 497.131C372.099 510.548 397.398 513.905 434.482 508.707L415.325 498.018Z" fill="#CCCCCC"/>
<path d="M556.12 177.113L559.174 184.94L554.182 212.736L503.247 204.936L503.653 171.041L504.676 163.618L556.12 177.113Z" fill="#FFB6B6"/>
<path d="M582.435 537.359H571.198L565.85 489.619H582.435V537.359Z" fill="#FFB6B6"/>
<path d="M549.009 553.516C549.01 554.918 549.517 556.263 550.417 557.254C551.317 558.245 552.537 558.803 553.81 558.804H575.189L578.874 550.425L580.306 558.804H588.364L586.098 528.877L582.436 528.641L570.129 527.834L568.145 527.698V536.175L551.083 549.159C550.443 549.646 549.92 550.298 549.559 551.056C549.198 551.815 549.009 552.659 549.009 553.516Z" fill="#2F2E41"/>
<path d="M478.57 482.631H467.332L460.722 412.347L481.836 410.958L478.57 482.631Z" fill="#FFB6B6"/>
<path d="M445.143 498.789C445.144 500.191 445.65 501.535 446.55 502.527C447.45 503.518 448.671 504.076 449.944 504.077H471.322L475.008 495.698L476.439 504.077H484.497L482.232 474.149L478.963 473.938L466.443 473.107L464.279 472.97V481.448L447.216 494.432C446.576 494.919 446.053 495.57 445.692 496.329C445.331 497.088 445.142 497.932 445.143 498.789V498.789Z" fill="#2F2E41"/>
<path d="M587.205 496.19H587.161L585 418.567C586.399 415.596 587.109 412.289 587.066 408.943C587.024 405.596 586.231 402.313 584.759 399.386L584.449 398.769L585.251 394.673C586.282 389.411 585.809 383.926 583.898 378.971L581.882 306.563C589.085 255.147 554.758 221.616 554.758 221.616L557.913 194.668L502.391 196.058L503.335 221.616L492.295 263.393C486.485 325.738 447.383 364.925 453.327 424.544C453.339 424.716 453.316 424.888 453.259 425.048C452.656 427.067 452.443 429.204 452.636 431.319C452.828 433.435 453.42 435.482 454.375 437.33C454.622 437.802 454.792 438.318 454.878 438.854C456.102 449.306 456.261 436.085 457.884 446.445L457.568 446.62C456.432 447.053 455.944 448.787 456.479 450.495C457.014 452.203 458.37 453.237 459.506 452.804L489.187 453.154C490.324 452.722 490.812 450.987 490.276 449.279C489.741 447.572 488.386 446.538 487.249 446.97L485.403 447.999L488.492 436.866L489.575 435.753C490.094 435.219 490.496 434.563 490.752 433.834C491.008 433.105 491.112 432.322 491.054 431.543C490.996 430.763 490.78 430.009 490.42 429.335C490.06 428.661 489.567 428.085 488.976 427.651L492.054 409.561L491.617 395.879L492.517 380.358L531.461 318.204L547.218 404.058L563.312 497.054C562.936 497.427 562.654 497.9 562.493 498.428C562.331 498.956 562.295 499.52 562.389 500.067C562.537 500.832 562.922 501.516 563.477 502.002C564.033 502.489 564.725 502.747 565.435 502.732H587.284C587.742 502.732 588.194 502.615 588.604 502.391C589.014 502.166 589.372 501.841 589.649 501.439C589.927 501.037 590.116 500.571 590.203 500.075C590.29 499.58 590.271 499.069 590.149 498.583C589.965 497.883 589.577 497.27 589.045 496.838C588.513 496.406 587.866 496.178 587.205 496.19V496.19Z" fill="#2F2E41"/>
<path d="M567.776 45.0296C567.778 49.9856 566.675 54.8663 564.564 59.2431C562.453 63.62 559.399 67.3593 555.67 70.1328C551.941 72.9062 547.651 74.629 543.176 75.15C538.702 75.6709 534.179 74.974 530.006 73.1205C525.833 71.267 522.137 68.3136 519.242 64.5194C516.347 60.7253 514.342 56.2065 513.403 51.3596C512.464 46.5128 512.62 41.4862 513.856 36.721C515.093 31.9558 517.372 27.5978 520.495 24.0295L520.627 23.8844C520.847 23.6299 521.067 23.3756 521.297 23.1333C521.299 23.1334 521.3 23.1331 521.302 23.1325C521.303 23.1319 521.304 23.131 521.305 23.1298C521.306 23.1287 521.307 23.1274 521.308 23.1259C521.308 23.1244 521.308 23.1228 521.308 23.1212C521.624 22.8677 521.915 22.5796 522.177 22.2614C525.888 16.55 530.095 11.7609 540.287 14.7528C554.959 19.0603 567.776 28.3046 567.776 45.0296Z" fill="#2F2E41"/>
<path d="M416.773 32.0687C416.71 33.6886 416.971 35.3038 417.537 36.8006C418.103 38.2974 418.96 39.6394 420.047 40.732C421.135 41.8246 422.427 42.6412 423.832 43.1245C425.237 43.6077 426.721 43.7457 428.18 43.5288L499.073 107.611L509.901 86.6477L436.811 30.2491C436.318 27.574 434.951 25.1911 432.969 23.5521C430.987 21.913 428.528 21.1315 426.058 21.3558C423.588 21.5801 421.279 22.7946 419.567 24.769C417.856 26.7435 416.862 29.3408 416.773 32.0687V32.0687Z" fill="#FFB6B6"/>
<path d="M529.007 126.509C529.007 126.509 528.985 124.201 517.716 124.29C503.727 124.4 465.2 102.28 468.57 81.4469C466.97 82.2432 465.175 82.4306 463.467 81.9795C461.76 81.5285 460.238 80.4646 459.14 78.9555L477.895 59.0659C483.781 59.5037 483.841 63.8415 483.337 66.3323L498.411 72.9294L537.67 97.7724L530.738 122.727L529.007 126.509Z" fill="#6C63FF"/>
<path d="M533.515 77.4236C546.245 77.4236 556.565 66.0568 556.565 52.0352C556.565 38.0135 546.245 26.6467 533.515 26.6467C520.784 26.6467 510.464 38.0135 510.464 52.0352C510.464 66.0568 520.784 77.4236 533.515 77.4236Z" fill="#FFB7B7"/>
<path d="M501.834 178.314C500.56 180.186 499.91 182.483 499.992 184.82C500.075 187.157 500.884 189.391 502.284 191.149C502.296 191.894 502.397 192.614 503.355 195.283C503.48 195.541 503.628 195.787 503.795 196.015C503.826 196.071 503.86 196.125 503.896 196.176C504.905 197.614 506.308 198.654 507.897 199.143L550.091 212.114L555.67 213.827L556.65 214.125L557.191 205.734C558.446 204.589 559.287 202.987 559.562 201.217C559.836 199.448 559.527 197.629 558.69 196.089L557.912 194.674L562.443 181.256L562.882 179.928L574.434 145.681L574.445 143.397L574.468 141.039L574.581 124.579C574.586 119.392 573.5 114.273 571.408 109.626C569.315 104.978 566.274 100.928 562.522 97.7925C559.104 94.9162 555.164 92.8841 550.97 91.8343L550.88 91.8219L546.316 85.0569L527.799 87.0926L526.267 90.5558L524.407 94.7265L510.985 103.527L506.398 115.27L503.299 123.214C498.498 127.012 495.635 131.891 494.813 137.7C493.054 150.038 500.898 162.389 501.834 163.804L502.07 177.967L501.834 178.314Z" fill="#6C63FF"/>
<path d="M557.638 58.6907C557.429 58.6543 557.22 58.6058 557.011 58.5694C553.415 57.8671 549.82 57.1768 546.235 56.4622L545.905 47.5125L541.562 55.5296C531.655 59.1507 522.386 57.1041 513.666 52.5868C510.79 51.083 508 49.3884 505.31 47.5125C504.424 32.3764 509.98 22.6865 520.319 23.7027C520.696 23.7399 520.967 23.3153 521.297 23.1334C521.299 23.1335 521.3 23.1332 521.302 23.1326C521.303 23.132 521.304 23.1311 521.305 23.1299C521.306 23.1288 521.307 23.1274 521.307 23.126C521.308 23.1245 521.308 23.1229 521.308 23.1213C521.869 22.8307 522.441 22.5521 523.013 22.2979C527.489 20.3711 532.37 19.8831 537.088 20.8907C541.806 21.8983 546.168 24.3601 549.666 27.9899C556.703 35.3896 559.87 47.6093 557.638 58.6907Z" fill="#2F2E41"/>
<path d="M557.011 58.5697C557.011 58.5697 550.183 30.4971 520.913 24.0177C520.88 24.0057 520.77 23.9573 520.627 23.8847C520.539 23.8241 520.429 23.7634 520.319 23.703C520.649 23.497 520.968 23.3155 521.297 23.1337C521.299 23.1337 521.3 23.1334 521.302 23.1328C521.303 23.1322 521.304 23.1313 521.305 23.1302C521.306 23.129 521.307 23.1277 521.308 23.1262C521.308 23.1247 521.308 23.1231 521.308 23.1215C521.594 22.8309 521.88 22.5403 522.177 22.2617L523.013 22.2981C523.013 22.2981 552.382 17.1753 557.011 58.5697Z" fill="#FD6584"/>
<path d="M568.271 235.533C567.729 236.044 567.07 236.38 566.366 236.505C565.662 236.631 564.941 236.541 564.28 236.245C562.966 235.631 561.799 234.69 560.87 233.497C557.078 229.116 554.369 223.739 553.001 217.877L554.266 215.399C553.769 212.344 554.236 209.194 555.589 206.471C556.943 203.748 559.1 201.617 561.705 200.431C563.187 199.739 564.829 199.581 566.397 199.982C567.175 200.194 567.886 200.634 568.455 201.255C569.024 201.876 569.431 202.655 569.631 203.51C570.118 206.16 568.114 208.553 566.084 210.075C562.547 212.718 558.459 214.329 554.202 214.757C559.409 217.989 563.91 222.438 567.389 227.791C568.193 228.908 568.786 230.19 569.133 231.563C569.3 232.252 569.309 232.975 569.158 233.668C569.008 234.361 568.703 235.002 568.271 235.533Z" fill="#2F2E41"/>
<path d="M276.907 559.705H663.759C664.088 559.705 664.403 559.561 664.635 559.305C664.868 559.049 664.998 558.702 664.998 558.34C664.998 557.978 664.868 557.631 664.635 557.375C664.403 557.119 664.088 556.975 663.759 556.975H276.907C276.578 556.975 276.263 557.119 276.03 557.375C275.798 557.631 275.667 557.978 275.667 558.34C275.667 558.702 275.798 559.049 276.03 559.305C276.263 559.561 276.578 559.705 276.907 559.705V559.705V559.705Z" fill="#CCCCCC"/>
<path d="M379.646 208.806V209.519C378.253 207.72 376.831 205.938 375.423 204.155C374.832 203.41 374.241 202.666 373.65 201.922C371.144 198.791 368.625 195.669 366.091 192.558C363.544 189.458 360.996 186.357 358.42 183.272C357.801 182.528 357.181 181.784 356.548 181.039C356.041 180.414 355.49 179.833 354.901 179.303C354.306 178.758 353.623 178.342 352.888 178.078C352.042 177.82 351.149 177.809 350.298 178.047C349.327 178.295 348.398 178.683 347.455 179.008C346.484 179.365 345.527 179.706 344.555 180.047C342.613 180.745 340.685 181.443 338.742 182.14C338.719 182.151 338.693 182.156 338.668 182.156C338.643 182.156 338.618 182.15 338.595 182.139C338.571 182.128 338.55 182.112 338.533 182.093C338.515 182.073 338.501 182.049 338.491 182.024L338.489 182.016C338.478 181.987 338.473 181.955 338.474 181.923C338.475 181.891 338.483 181.86 338.496 181.832C338.51 181.804 338.529 181.78 338.552 181.761C338.575 181.741 338.601 181.728 338.63 181.722C339.108 181.551 339.601 181.381 340.093 181.21C342.05 180.497 343.992 179.799 345.949 179.102C346.92 178.745 347.891 178.404 348.863 178.063C349.763 177.686 350.715 177.476 351.678 177.443C353.25 177.567 354.725 178.329 355.816 179.582C356.421 180.202 356.97 180.853 357.519 181.52C358.167 182.295 358.814 183.07 359.462 183.845C362.066 186.977 364.651 190.119 367.217 193.271C369.793 196.434 372.346 199.602 374.875 202.775C375.057 203.008 375.24 203.24 375.423 203.473C376.845 205.24 378.239 207.023 379.646 208.806Z" fill="white"/>
<path d="M354.683 182.159C354.151 181.405 353.442 180.825 352.633 180.481L351.833 180.512C358.115 191.28 366.345 200.504 376.01 207.611C368.901 199.127 361.792 190.643 354.683 182.159Z" fill="white"/>
<path d="M485.79 294.055L453.902 106.001C453.356 102.901 451.871 100.097 449.689 98.0495C447.506 96.0015 444.757 94.8308 441.892 94.7296C441.634 94.7233 441.376 94.7233 441.118 94.7296L419.396 95.5878L417.058 95.6825L406.217 96.1117L403.879 96.2L396.905 96.4777L256.29 102.038C256.078 102.05 255.861 102.05 255.649 102.044L224.139 101.318L212.479 101.053L212.106 101.047L203.5 100.845L128.505 99.1284L108.622 98.6676L98.8176 98.4468L96.4684 98.39L85.2891 98.1375L82.9455 98.0807L71.5083 97.8219L69.1648 97.7651L56.5988 97.4748L54.6277 97.4306L43.4197 97.1719L41.6492 97.134H41.3913C38.4159 97.1474 35.5405 98.3189 33.2735 100.442C31.0065 102.564 29.4939 105.502 29.003 108.734L0.163754 303.875C-0.129107 305.851 -0.0282782 307.875 0.459232 309.804C0.946742 311.734 1.80926 313.524 2.98709 315.05C4.16493 316.576 5.62988 317.801 7.28048 318.642C8.93108 319.482 10.7279 319.918 12.5463 319.918H178.167C180.605 319.925 182.977 320.787 184.94 322.379L188.08 324.941C190.244 326.696 192.859 327.646 195.546 327.655C227.534 318.356 261.164 318.356 293.152 327.655C294.801 327.66 296.435 327.304 297.958 326.608C299.482 325.913 300.865 324.891 302.027 323.603C304.016 321.414 306.669 320.112 309.477 319.949L474.112 310.394C475.897 310.291 477.642 309.77 479.229 308.864C480.816 307.958 482.21 306.689 483.315 305.142C484.421 303.594 485.214 301.805 485.641 299.893C486.067 297.98 486.118 295.99 485.79 294.054V294.055Z" fill="#CCCCCC"/>
<path d="M440.672 264.73C440.461 271.102 437.961 277.122 433.721 281.465C429.482 285.808 423.85 288.119 418.064 287.89C408.504 287.518 397.096 287.332 384.714 287.616C344.277 288.569 293.476 294.698 262.918 316.742C259.077 319.519 254.539 320.89 249.95 320.661C249.612 320.639 249.284 320.617 248.946 320.584C244.188 320.105 239.704 317.917 236.186 314.356C219.352 297.391 180.744 276.846 92.369 275.401C92.0013 275.401 91.6435 275.379 91.2858 275.358C88.4234 275.159 85.6246 274.341 83.0493 272.951C80.474 271.561 78.1728 269.625 76.2772 267.254C74.3815 264.884 72.9286 262.125 72.0014 259.136C71.0743 256.147 70.6912 252.985 70.8739 249.833L79.5594 98.0086L80.8612 75.253L83.1469 35.4444C83.3774 31.4354 84.9849 27.6734 87.6429 24.9228C90.3008 22.1721 93.8099 20.6391 97.457 20.6353H97.5465L150.196 20.9746C172.377 22.08 190.748 25.1922 205.31 30.311C210.284 32.0099 215.123 34.1551 219.779 36.7251C226.138 40.1207 231.851 44.8199 236.613 50.5711C239.58 54.2451 243.626 56.6515 248.042 57.3682C248.726 57.4809 249.417 57.5503 250.109 57.5762C254.181 57.7618 258.2 56.495 261.567 53.9642C295.961 28.5817 366.051 26.6553 404.758 27.7498C410.171 27.8889 415.343 30.2424 419.267 34.3518C423.191 38.4613 425.586 44.0324 425.985 49.98L427.555 72.6262L429.115 95.2066L438.118 225.709L440.623 262.015C440.684 262.918 440.7 263.824 440.672 264.73V264.73Z" fill="#F2F2F2"/>
<path d="M105.467 74.0597C137.195 62.9103 172.592 65.8621 202.649 81.5692C211.225 86.0276 219.325 91.5223 226.799 97.952C228.913 99.7796 231.922 96.5104 229.785 94.6632C202.177 71.0783 167.489 59.8744 132.69 63.3026C123.062 64.2515 113.557 66.3547 104.344 69.5748C101.765 70.4811 102.867 74.9731 105.467 74.0597H105.467Z" fill="#3F3D56"/>
<path d="M280.055 99.7564C309.554 82.6791 344.878 78.9551 376.951 88.6489C386.094 91.406 394.931 95.2757 403.297 100.187C405.694 101.595 407.83 97.5819 405.428 96.1708C374.861 78.2057 338.167 74.0702 304.786 84.0846C295.474 86.8833 286.467 90.7916 277.924 95.7404C275.517 97.1336 277.649 101.149 280.055 99.7564Z" fill="#3F3D56"/>
<path d="M280.055 130.763C309.554 113.685 344.878 109.961 376.951 119.655C386.094 122.412 394.931 126.282 403.297 131.193C405.694 132.602 407.83 128.588 405.428 127.177C374.861 109.212 338.167 105.077 304.786 115.091C295.474 117.89 286.467 121.798 277.924 126.747C275.517 128.14 277.649 132.156 280.055 130.763L280.055 130.763Z" fill="#3F3D56"/>
<path d="M406.461 160.106C406.484 159.707 406.396 159.309 406.211 158.966C406.025 158.622 405.75 158.348 405.421 158.178C380.933 144.055 353.168 138.327 325.699 141.731C325.527 141.746 325.369 141.777 325.183 141.792H325.176C325.007 141.808 324.839 141.836 324.673 141.875C308.335 143.946 292.486 149.327 277.924 157.746C277.607 157.954 277.344 158.25 277.162 158.603C276.979 158.957 276.883 159.358 276.884 159.765V217.607C276.889 217.962 276.968 218.312 277.114 218.63C277.26 218.947 277.47 219.224 277.727 219.439C277.985 219.654 278.284 219.802 278.601 219.871C278.918 219.94 279.245 219.929 279.557 219.838C280.205 219.633 280.853 219.436 281.515 219.246C296.235 214.857 311.347 212.254 326.581 211.482C326.905 211.466 327.229 211.451 327.567 211.436C339.975 210.849 352.406 211.341 364.743 212.908C365.002 212.924 365.26 212.955 365.515 212.999C366.149 213.075 366.797 213.159 367.431 213.25C367.686 213.28 367.927 213.311 368.161 213.356C370.628 213.698 373.075 214.085 375.528 214.502C379.07 215.125 382.612 215.818 386.154 216.582C386.374 216.627 386.602 216.688 386.829 216.734C392.514 217.978 398.171 219.42 403.801 221.014C404.115 221.103 404.443 221.113 404.76 221.042C405.077 220.971 405.376 220.822 405.634 220.606C405.891 220.39 406.1 220.112 406.246 219.793C406.392 219.475 406.47 219.124 406.475 218.768V160.197C406.477 160.166 406.473 160.135 406.461 160.106V160.106Z" fill="#3F3D56"/>
<path d="M329.01 144.885C327.463 144.05 325.69 143.879 324.034 144.404C323.303 144.706 322.634 145.165 322.065 145.754C321.496 146.343 321.039 147.051 320.72 147.836C320.147 149.342 319.779 150.934 319.629 152.558C319.542 153.197 319.537 154.004 320.12 154.302C320.332 154.387 320.56 154.406 320.781 154.358C321.002 154.31 321.207 154.196 321.373 154.029C321.674 153.702 321.923 153.32 322.107 152.901C323.12 151.166 324.513 149.74 326.159 148.754C327.804 147.769 329.649 147.256 331.522 147.263L333.081 147.948C331.854 146.731 330.485 145.701 329.01 144.885V144.885Z" fill="#FF6582"/>
<path d="M345.883 158.217C344.673 156.255 343.239 154.161 340.994 153.52C338.394 152.778 335.723 154.252 333.458 155.706C326.721 160.027 320.197 164.74 313.914 169.823L313.921 169.899L328.505 168.913C332.017 168.676 335.65 168.406 338.754 166.777C339.868 166.007 341.114 165.496 342.414 165.276C343.221 165.324 344.011 165.547 344.739 165.933C345.467 166.32 346.118 166.861 346.655 167.526C353.376 174.542 355.321 185.273 362.861 191.437C358.063 179.856 352.383 168.743 345.883 158.217V158.217Z" fill="white"/>
<path d="M327.569 211.435C327.232 211.45 326.908 211.466 326.584 211.481C324.233 210.551 321.826 209.729 319.391 209.016C317.815 208.551 316.21 208.133 314.605 207.776C312.79 207.342 310.96 207.001 309.13 206.706C305.646 206.148 302.135 205.822 298.615 205.73C298.589 205.733 298.562 205.73 298.536 205.721C298.511 205.712 298.487 205.697 298.467 205.677C298.447 205.657 298.431 205.633 298.42 205.606C298.409 205.579 298.404 205.55 298.404 205.52C298.404 205.491 298.409 205.462 298.42 205.435C298.431 205.408 298.447 205.383 298.467 205.364C298.487 205.344 298.511 205.329 298.536 205.32C298.562 205.311 298.589 205.308 298.615 205.311C299.066 205.311 299.516 205.327 299.953 205.358C303.48 205.501 306.996 205.879 310.481 206.489C312.297 206.815 314.113 207.202 315.915 207.637C317.547 208.04 319.18 208.489 320.785 208.985C323.079 209.698 325.34 210.515 327.569 211.435Z" fill="white"/>
<path d="M368.164 213.357C367.925 213.311 367.685 213.28 367.432 213.249C366.461 212.365 365.475 211.528 364.448 210.706C363.167 209.683 361.844 208.722 360.492 207.823C357.5 205.822 354.376 204.07 351.146 202.583C346.04 200.241 340.755 198.404 335.353 197.095C329.191 195.608 322.954 194.531 316.675 193.87C310.397 193.157 304.091 192.723 297.785 192.289C297.518 192.273 297.503 191.839 297.785 191.854C298.573 191.916 299.362 191.963 300.164 192.025C306.54 192.459 312.916 192.955 319.25 193.746C325.531 194.487 331.761 195.678 337.901 197.312C343.142 198.734 348.258 200.67 353.187 203.094C356.022 204.497 358.768 206.108 361.407 207.916C363.082 209.078 364.701 210.319 366.249 211.637C366.897 212.195 367.544 212.753 368.164 213.357Z" fill="white"/>
<path d="M365.518 213.001C365.261 212.955 365.003 212.924 364.743 212.908C364.448 212.644 364.138 212.396 363.829 212.148C361.662 210.44 359.401 208.881 357.058 207.481C354.931 206.208 352.746 205.054 350.513 204.024C345.409 201.675 340.123 199.839 334.72 198.536C328.558 197.049 322.321 195.973 316.041 195.312C309.764 194.598 303.458 194.164 297.152 193.73C296.884 193.699 296.884 193.281 297.152 193.296C297.954 193.358 298.742 193.405 299.53 193.467C305.907 193.901 312.283 194.397 318.617 195.187C324.898 195.929 331.128 197.12 337.268 198.753C342.51 200.173 347.626 202.109 352.554 204.536C354.412 205.466 356.228 206.474 358.001 207.575C360.631 209.165 363.144 210.979 365.518 213.001Z" fill="white"/>
<path d="M386.828 216.737C386.603 216.69 386.378 216.628 386.153 216.582C385.899 216.287 385.66 215.977 385.421 215.667C384.21 214.132 383.014 212.582 381.831 211.016C377.172 204.908 372.753 198.613 368.586 192.195C365.011 186.707 361.619 181.11 358.409 175.405C356.875 172.708 355.397 169.979 353.948 167.219C352.821 165.08 351.723 162.936 350.654 160.786C350.344 160.165 350.048 159.545 349.753 158.925C349.063 157.468 348.373 155.995 347.642 154.553C346.846 152.787 345.678 151.256 344.235 150.088C343.514 149.557 342.679 149.241 341.814 149.174C340.593 149.179 339.393 149.52 338.323 150.166C330.448 154.205 323.02 159.225 316.182 165.126C309.504 170.847 303.466 177.42 298.193 184.707C298.025 184.924 297.658 184.723 297.813 184.49C298.447 183.622 299.094 182.754 299.741 181.901C304.809 175.299 310.515 169.326 316.759 164.088C316.773 164.072 316.801 164.057 316.815 164.041C317.364 163.561 317.913 163.096 318.476 162.646C321.962 159.819 325.59 157.21 329.343 154.832C331.257 153.608 333.214 152.445 335.213 151.344C335.705 151.065 336.212 150.786 336.718 150.522C337.225 150.243 337.732 149.98 338.239 149.716C339.242 149.153 340.339 148.821 341.462 148.74C345.375 148.678 347.388 153.019 348.781 155.949C349.218 156.863 349.668 157.778 350.105 158.693C351.794 162.15 353.553 165.592 355.383 168.987C356.495 171.095 357.649 173.188 358.818 175.266C360.493 178.227 362.21 181.157 363.997 184.072C363.997 184.074 363.998 184.076 363.998 184.078C363.999 184.079 364 184.081 364.001 184.083C364.002 184.084 364.004 184.085 364.006 184.086C364.007 184.087 364.009 184.087 364.011 184.087H364.011C366.081 187.529 368.234 190.908 370.458 194.273C374.273 200.024 378.27 205.647 382.451 211.14C383.887 213.032 385.346 214.897 386.828 216.737Z" fill="white"/>
<path d="M336.61 148.267L336.221 148.455C335.329 146.796 334.079 145.405 332.582 144.407C331.084 143.409 329.386 142.833 327.639 142.732C321.876 142.281 316.814 146.511 316.354 152.16C316.167 154.486 316.778 156.805 318.067 158.659L317.706 158.895C316.363 156.964 315.727 154.549 315.921 152.126C316.4 146.243 321.672 141.838 327.673 142.308C329.493 142.413 331.261 143.013 332.821 144.052C334.38 145.092 335.682 146.54 336.61 148.267V148.267Z" fill="#FF6582"/>
<path d="M308.136 159.697C306.623 158.973 304.976 158.655 303.33 158.77C301.684 158.886 300.087 159.431 298.67 160.361C303.842 161.235 308.969 162.408 314.03 163.875C311.934 162.672 310.295 160.786 308.136 159.697Z" fill="white"/>
<path d="M298.641 160.355L298.071 160.807C298.264 160.649 298.464 160.501 298.67 160.361L298.641 160.355Z" fill="white"/>
<path d="M315.792 162.988C315.565 162.74 315.339 162.492 315.111 162.244C313.359 160.143 311.249 158.443 308.901 157.239C307.706 156.684 306.424 156.393 305.127 156.381C303.787 156.416 302.462 156.699 301.208 157.219C300.618 157.45 300.041 157.712 299.473 157.992C298.823 158.312 298.186 158.654 297.551 158.998C296.359 159.645 295.183 160.32 294.022 161.023C291.713 162.422 289.476 163.928 287.311 165.541C286.189 166.378 285.09 167.242 284.014 168.133C283.013 168.961 282.033 169.811 281.072 170.683C280.867 170.869 280.56 170.569 280.766 170.383C281.019 170.152 281.275 169.922 281.531 169.695C282.254 169.054 282.988 168.426 283.735 167.81C285.095 166.684 286.491 165.602 287.922 164.563C290.148 162.947 292.45 161.44 294.829 160.043C296.018 159.346 297.223 158.677 298.444 158.039C298.813 157.846 299.186 157.657 299.564 157.479C300.426 157.053 301.315 156.698 302.225 156.417C303.529 156.005 304.894 155.873 306.243 156.03C307.536 156.211 308.79 156.637 309.951 157.287C312.253 158.708 314.329 160.531 316.099 162.686C316.284 162.89 315.978 163.192 315.792 162.988Z" fill="white"/>
<path d="M105.467 105.066C137.195 93.9167 172.592 96.8685 202.649 112.576C211.225 117.034 219.325 122.529 226.799 128.958C228.913 130.786 231.922 127.517 229.785 125.67C202.177 102.085 167.489 90.8808 132.69 94.3089C123.062 95.2578 113.557 97.361 104.344 100.581C101.765 101.487 102.867 105.979 105.467 105.066L105.467 105.066Z" fill="#3F3D56"/>
<path d="M105.467 136.073C137.195 124.924 172.592 127.875 202.649 143.582C211.225 148.041 219.325 153.535 226.799 159.965C228.913 161.793 231.922 158.524 229.785 156.676C202.177 133.092 167.489 121.888 132.69 125.316C123.062 126.265 113.557 128.368 104.344 131.588C101.765 132.494 102.867 136.986 105.467 136.073L105.467 136.073Z" fill="#3F3D56"/>
<path d="M105.467 167.079C137.195 155.93 172.592 158.882 202.649 174.589C211.225 179.047 219.325 184.542 226.799 190.971C228.913 192.799 231.922 189.53 229.785 187.683C202.177 164.098 167.489 152.894 132.69 156.322C123.062 157.271 113.557 159.374 104.344 162.594C101.765 163.501 102.867 167.993 105.467 167.079L105.467 167.079Z" fill="#3F3D56"/>
<path d="M105.467 198.086C137.195 186.936 172.592 189.888 202.649 205.595C211.225 210.054 219.325 215.548 226.799 221.978C228.913 223.806 231.922 220.537 229.785 218.689C202.177 195.104 167.489 183.901 132.69 187.329C123.062 188.278 113.557 190.381 104.344 193.601C101.765 194.507 102.867 198.999 105.467 198.086L105.467 198.086Z" fill="#3F3D56"/>
<path d="M105.467 229.092C137.195 217.943 172.592 220.895 202.649 236.602C211.225 241.06 219.325 246.555 226.799 252.984C228.913 254.812 231.922 251.543 229.785 249.696C202.177 226.111 167.489 214.907 132.69 218.335C123.062 219.284 113.557 221.387 104.344 224.607C101.765 225.514 102.867 230.006 105.467 229.092H105.467Z" fill="#3F3D56"/>
<path d="M219.779 36.7251V111.077C219.779 112.555 217.434 113.792 214.274 114.131C214.247 114.129 214.22 114.133 214.194 114.142C213.668 114.186 213.111 114.219 212.545 114.219C210.802 114.254 209.069 113.943 207.427 113.299C207.278 113.234 207.129 113.157 206.98 113.091C206.84 113.004 206.691 112.927 206.552 112.84C205.767 112.325 205.31 111.723 205.31 111.077V30.311C210.284 32.0099 215.123 34.1551 219.779 36.7251V36.7251Z" fill="#6C63FF"/>
<path d="M250.107 53.97H248.04V319.107H250.107V53.97Z" fill="#E6E6E6"/>
<path d="M474.917 235.475C476.383 235.327 477.801 234.827 479.073 234.01C480.344 233.193 481.438 232.079 482.276 230.746C483.115 229.414 483.677 227.895 483.925 226.297C484.173 224.698 484.099 223.06 483.71 221.496L526.618 199.435L552.451 153.411L532.146 144.381L514.719 181.469L470.611 213.843C468.27 214.737 466.308 216.547 465.097 218.929C463.886 221.31 463.51 224.098 464.041 226.765C464.571 229.431 465.972 231.791 467.976 233.396C469.981 235.001 472.45 235.741 474.917 235.475V235.475Z" fill="#FFB6B6"/>
<path d="M568.386 109.32C568.386 109.32 573.442 111.138 567.892 121.942C563.449 130.591 541.804 180.41 532.969 190.192C533.899 191.832 534.306 193.767 534.128 195.69C533.949 197.614 533.195 199.418 531.983 200.817L511.588 182.992C511.198 176.509 515.094 175.865 517.402 176.084L522.094 157.769L538.459 112.587L564.752 107.935L568.386 109.32Z" fill="#6C63FF"/>
<path d="M568.826 24.6362C569.791 20.3421 576.786 17.1714 564.803 11.1763C561.895 9.7213 562.015 4.7107 559.555 2.46678C557.095 0.222851 553.493 -0.81746 550.634 0.750956C548.08 2.15155 546.642 5.32113 546.335 8.44463C546.188 11.5884 546.517 14.7371 547.31 17.7615L547.078 18.1353C551.824 22.136 556.571 26.1366 561.318 30.1371C563.062 31.6072 565.343 33.1466 567.297 32.0435C569.51 30.7948 568.229 27.2948 568.826 24.6362Z" fill="#2F2E41"/>
</g>
<defs>
<clipPath id="clip0_105_263">
<rect width="665" height="560" fill="white"/>
</clipPath>
</defs>
</svg>
