<svg width="593" height="499" viewBox="0 0 593 499" fill="none" xmlns="http://www.w3.org/2000/svg">
<g clip-path="url(#clip0_105_263)">
<path d="M552.879 430.158L553.892 405.074C564.459 398.857 576.245 395.573 588.227 395.508C571.736 410.346 573.797 438.949 562.617 458.903C559.087 465.097 554.336 470.337 548.715 474.236C543.095 478.134 536.749 480.59 530.149 481.422L516.349 490.721C514.456 479.103 514.873 467.172 517.573 455.748C520.273 444.325 525.19 433.681 531.987 424.551C535.847 419.47 540.272 414.945 545.158 411.082C548.463 420.673 552.879 430.158 552.879 430.158Z" fill="#F2F2F2"/>
<path d="M343.619 496.966C336.59 496.415 334.757 497.941 324.123 496.966H304.627L307.164 445.617L337.855 459.153L490.377 463.274L490.287 463.558C490.218 463.778 483.447 485.578 488.74 493.834L488.959 494.175L488.531 494.18L348.616 495.592C347.089 495.607 345.134 497.084 343.619 496.966Z" fill="#F2F2F2"/>
<path d="M351.53 497.637C337.952 496.574 323.893 502.383 312.16 495.825L302.78 496.45L302.753 496.363C302.68 496.125 298.25 457.754 307.207 442.877L307.601 442.222L307.909 445.746L304.956 493.544L311.501 491.14C327.396 499.375 346.301 493.937 364.493 493.861L488.304 493.357C490.897 493.348 493.058 495.298 493.127 497.706L493.133 497.941L359.008 497.93C356.507 497.93 354.014 497.832 351.53 497.637Z" fill="#CCCCCC"/>
<path d="M481.777 473.63L342.448 470.582L342.305 470.523L309.387 456.945L310.009 455.118L342.785 468.639L481.812 471.679L481.777 473.63Z" fill="#E6E6E6"/>
<path d="M481.034 481.841L341.705 478.793L341.563 478.734L308.644 465.156L309.266 463.329L342.043 476.85L481.069 479.89L481.034 481.841Z" fill="#E6E6E6"/>
<path d="M480.291 490.053L340.961 487.004L340.82 486.946L307.9 473.366L308.522 471.54L341.3 485.061L480.326 488.102L480.291 490.053Z" fill="#E6E6E6"/>
<path d="M352.492 463.804C339.574 462.843 326.979 458.932 315.509 452.319L305.852 446.682L306.104 443.895C306.175 443.486 306.38 443.12 306.681 442.867C306.981 442.615 307.356 442.494 307.733 442.527L308.586 442.539L438.523 444.643C447.027 444.76 455.454 446.443 463.453 449.623L491.764 460.936L491.749 461.1C491.512 463.726 489.106 465.755 486.273 465.719L358.28 464.068C356.344 464.043 354.415 463.955 352.492 463.804Z" fill="#E6E6E6"/>
<path d="M491.493 461.539L491.463 461.538L335.645 457.608L335.537 457.553L307.444 443.235L307.729 442.756L308.583 442.768L335.906 456.701L490.279 460.591L491.516 460.623L491.493 461.539Z" fill="#CCCCCC"/>
<path d="M370.357 443.77L368.379 443.739L323.724 443.012L321.608 442.979C331.811 454.935 354.371 457.926 387.44 453.294L370.357 443.77Z" fill="#CCCCCC"/>
<path d="M495.908 157.82L498.632 164.795L494.18 189.563L448.76 182.613L449.122 152.41L450.034 145.795L495.908 157.82Z" fill="#FFB6B6"/>
<path d="M519.375 478.825H509.354L504.584 436.286H519.375V478.825Z" fill="#FFB6B6"/>
<path d="M489.567 493.222C489.568 494.472 490.02 495.67 490.822 496.553C491.625 497.436 492.713 497.933 493.849 497.934H512.913L516.199 490.468L517.475 497.934H524.661L522.641 471.267L519.375 471.057L508.4 470.338L506.632 470.216V477.77L491.417 489.34C490.846 489.774 490.38 490.354 490.057 491.03C489.735 491.707 489.567 492.459 489.567 493.222Z" fill="#2F2E41"/>
<path d="M426.754 430.059H416.734L410.839 367.431L429.667 366.193L426.754 430.059Z" fill="#FFB6B6"/>
<path d="M396.947 444.457C396.948 445.706 397.399 446.904 398.202 447.787C399.004 448.671 400.093 449.168 401.228 449.169H420.292L423.578 441.703L424.855 449.169H432.04L430.02 422.501L427.106 422.313L415.941 421.572L414.011 421.45V429.005L398.796 440.574C398.225 441.009 397.759 441.589 397.437 442.265C397.115 442.941 396.947 443.693 396.947 444.457V444.457Z" fill="#2F2E41"/>
<path d="M523.628 442.141H523.589L521.662 372.973C522.909 370.325 523.542 367.379 523.504 364.397C523.467 361.415 522.76 358.49 521.446 355.881L521.17 355.332L521.886 351.682C522.804 346.993 522.383 342.106 520.678 337.69L518.881 273.169C525.304 227.355 494.693 197.476 494.693 197.476L497.507 173.463L447.996 174.702L448.838 197.476L438.994 234.702C433.813 290.256 398.944 325.174 404.244 378.299C404.255 378.452 404.234 378.605 404.184 378.748C403.646 380.548 403.457 382.451 403.628 384.336C403.8 386.221 404.328 388.046 405.179 389.693C405.4 390.113 405.551 390.573 405.627 391.051C406.719 400.364 406.861 388.583 408.308 397.814L408.027 397.971C407.013 398.356 406.578 399.902 407.055 401.423C407.533 402.945 408.741 403.866 409.755 403.481L436.222 403.793C437.236 403.407 437.671 401.862 437.194 400.34C436.716 398.818 435.508 397.897 434.494 398.282L432.847 399.199L435.602 389.279L436.568 388.287C437.03 387.812 437.389 387.227 437.618 386.577C437.846 385.928 437.938 385.23 437.887 384.535C437.836 383.841 437.642 383.169 437.322 382.568C437.001 381.968 436.561 381.455 436.034 381.068L438.778 364.948L438.389 352.757L439.192 338.926L473.919 283.542L487.97 360.044L502.321 442.911C501.986 443.243 501.735 443.665 501.591 444.135C501.447 444.605 501.415 445.108 501.498 445.596C501.63 446.277 501.973 446.887 502.469 447.32C502.965 447.753 503.582 447.983 504.215 447.971H523.698C524.106 447.97 524.509 447.866 524.875 447.666C525.241 447.466 525.56 447.176 525.807 446.818C526.055 446.46 526.223 446.044 526.301 445.603C526.378 445.162 526.362 444.706 526.253 444.273C526.089 443.65 525.743 443.103 525.268 442.718C524.794 442.333 524.217 442.13 523.628 442.141V442.141Z" fill="#2F2E41"/>
<path d="M506.303 40.1247C506.304 44.5408 505.321 48.8898 503.439 52.7899C501.556 56.69 498.833 60.022 495.508 62.4934C492.183 64.9647 488.357 66.4999 484.367 66.964C480.377 67.4282 476.344 66.8073 472.622 65.1557C468.901 63.5041 465.605 60.8723 463.024 57.4915C460.442 54.1106 458.655 50.084 457.817 45.7652C456.98 41.4463 457.118 36.9672 458.221 32.7211C459.324 28.475 461.356 24.5917 464.141 21.4121L464.259 21.2827C464.455 21.056 464.651 20.8294 464.857 20.6135C464.858 20.6135 464.859 20.6133 464.86 20.6127C464.862 20.6122 464.863 20.6114 464.864 20.6104C464.865 20.6094 464.865 20.6082 464.866 20.6069C464.866 20.6055 464.867 20.6041 464.866 20.6027C465.148 20.3768 465.407 20.1201 465.641 19.8366C468.95 14.7473 472.702 10.4799 481.79 13.1459C494.874 16.9841 506.303 25.2215 506.303 40.1247Z" fill="#2F2E41"/>
<path d="M371.649 28.5756C371.593 30.019 371.826 31.4583 372.33 32.7921C372.835 34.1258 373.599 35.3216 374.569 36.2952C375.539 37.2688 376.691 37.9965 377.944 38.4271C379.197 38.8577 380.52 38.9807 381.821 38.7874L445.038 95.8888L454.694 77.2094L389.517 26.9542C389.078 24.5705 387.858 22.4472 386.091 20.9867C384.324 19.5262 382.131 18.8298 379.929 19.0297C377.726 19.2296 375.667 20.3117 374.141 22.0711C372.615 23.8305 371.728 26.1448 371.649 28.5757V28.5756Z" fill="#FFB6B6"/>
<path d="M471.731 112.729C471.731 112.729 471.712 110.672 461.662 110.751C449.188 110.849 414.832 91.1384 417.837 72.5749C416.411 73.2845 414.81 73.4514 413.287 73.0495C411.765 72.6476 410.407 71.6996 409.428 70.3549L426.153 52.6318C431.402 53.022 431.455 56.8872 431.006 59.1067L444.447 64.9852L479.456 87.1221L473.275 109.358L471.731 112.729Z" fill="#6C63FF"/>
<path d="M475.75 68.9899C487.103 68.9899 496.305 58.8613 496.305 46.367C496.305 33.8728 487.103 23.7441 475.75 23.7441C464.398 23.7441 455.195 33.8728 455.195 46.367C455.195 58.8613 464.398 68.9899 475.75 68.9899Z" fill="#FFB7B7"/>
<path d="M447.5 158.891C446.365 160.558 445.785 162.605 445.858 164.688C445.931 166.77 446.653 168.761 447.902 170.328C447.912 170.991 448.002 171.633 448.857 174.011C448.968 174.241 449.1 174.46 449.249 174.663C449.276 174.713 449.306 174.761 449.339 174.807C450.239 176.088 451.49 177.015 452.907 177.451L490.533 189.009L495.507 190.535L496.381 190.801L496.864 183.324C497.983 182.303 498.732 180.875 498.978 179.299C499.223 177.723 498.947 176.102 498.2 174.73L497.507 173.469L501.547 161.512L501.939 160.329L512.24 129.812L512.25 127.777L512.27 125.676L512.37 111.009C512.375 106.387 511.407 101.826 509.541 97.6845C507.675 93.5432 504.963 89.934 501.617 87.14C498.57 84.5771 495.057 82.7663 491.316 81.8309L491.236 81.8199L487.166 75.7917L470.654 77.6057L469.288 80.6916L467.629 84.4081L455.66 92.2501L451.57 102.714L448.806 109.792C444.525 113.177 441.973 117.524 441.239 122.7C439.671 133.695 446.666 144.7 447.5 145.961L447.711 158.581L447.5 158.891Z" fill="#6C63FF"/>
<path d="M497.262 52.2978C497.076 52.2654 496.889 52.2221 496.703 52.1897C493.497 51.5639 490.291 50.9488 487.094 50.312L486.8 42.3372L482.927 49.481C474.093 52.7077 465.827 50.884 458.051 46.8588C455.487 45.5187 452.998 44.0088 450.6 42.3372C449.81 28.8499 454.764 20.2155 463.984 21.121C464.32 21.1541 464.562 20.7757 464.856 20.6137C464.857 20.6137 464.859 20.6135 464.86 20.6129C464.861 20.6124 464.862 20.6116 464.863 20.6106C464.864 20.6096 464.865 20.6084 464.865 20.6071C464.866 20.6057 464.866 20.6043 464.866 20.6029C465.366 20.3439 465.876 20.0957 466.386 19.8692C470.377 18.1523 474.73 17.7175 478.937 18.6153C483.145 19.5131 487.034 21.7067 490.153 24.9411C496.429 31.5349 499.252 42.4235 497.262 52.2978Z" fill="#2F2E41"/>
<path d="M496.703 52.1897C496.703 52.1897 490.614 27.175 464.513 21.4015C464.483 21.3908 464.385 21.3476 464.258 21.2829C464.179 21.2289 464.081 21.1749 463.983 21.121C464.278 20.9375 464.562 20.7757 464.856 20.6137C464.857 20.6137 464.859 20.6135 464.86 20.6129C464.861 20.6124 464.862 20.6116 464.863 20.6106C464.864 20.6096 464.865 20.6084 464.865 20.607C464.866 20.6057 464.866 20.6043 464.866 20.6029C465.121 20.3439 465.376 20.0849 465.64 19.8367L466.386 19.8691C466.386 19.8691 492.575 15.3043 496.703 52.1897Z" fill="#FD6584"/>
<path d="M506.745 209.877C506.261 210.332 505.673 210.631 505.046 210.743C504.418 210.855 503.775 210.774 503.186 210.511C502.014 209.964 500.973 209.126 500.144 208.062C496.763 204.159 494.347 199.367 493.127 194.144L494.255 191.936C493.812 189.214 494.229 186.406 495.436 183.98C496.642 181.554 498.566 179.655 500.889 178.598C502.21 177.981 503.675 177.841 505.073 178.198C505.767 178.387 506.401 178.779 506.908 179.333C507.416 179.886 507.778 180.58 507.957 181.341C508.391 183.703 506.604 185.835 504.794 187.191C501.64 189.547 497.994 190.983 494.199 191.364C498.842 194.244 502.855 198.208 505.957 202.978C506.675 203.973 507.204 205.116 507.513 206.339C507.662 206.953 507.669 207.597 507.535 208.215C507.401 208.833 507.129 209.404 506.745 209.877Z" fill="#2F2E41"/>
<path d="M246.926 498.737H591.893C592.186 498.737 592.468 498.609 592.675 498.381C592.882 498.153 592.998 497.843 592.998 497.521C592.998 497.198 592.882 496.889 592.675 496.661C592.468 496.433 592.186 496.305 591.893 496.305H246.926C246.633 496.305 246.352 496.433 246.144 496.661C245.937 496.889 245.821 497.198 245.821 497.521C245.821 497.843 245.937 498.153 246.144 498.381C246.352 498.609 246.633 498.737 246.926 498.737V498.737V498.737Z" fill="#CCCCCC"/>
<path d="M338.541 186.061V186.696C337.299 185.094 336.031 183.505 334.776 181.916C334.249 181.253 333.722 180.59 333.194 179.927C330.96 177.137 328.713 174.355 326.454 171.583C324.182 168.82 321.91 166.057 319.613 163.308C319.061 162.645 318.509 161.982 317.944 161.319C317.492 160.762 317.001 160.244 316.475 159.772C315.945 159.286 315.336 158.916 314.681 158.68C313.926 158.45 313.13 158.441 312.371 158.653C311.505 158.874 310.677 159.219 309.836 159.509C308.969 159.827 308.116 160.131 307.25 160.435C305.518 161.056 303.798 161.678 302.066 162.3C302.045 162.309 302.023 162.314 302 162.314C301.978 162.314 301.955 162.308 301.935 162.299C301.914 162.289 301.895 162.275 301.879 162.257C301.863 162.24 301.851 162.219 301.842 162.196L301.84 162.189C301.83 162.163 301.826 162.135 301.827 162.107C301.828 162.078 301.835 162.051 301.847 162.026C301.859 162 301.876 161.979 301.896 161.962C301.917 161.945 301.94 161.933 301.966 161.927C302.393 161.775 302.832 161.623 303.271 161.471C305.016 160.835 306.748 160.214 308.493 159.592C309.359 159.274 310.225 158.971 311.091 158.667C311.894 158.331 312.742 158.144 313.601 158.114C315.003 158.225 316.318 158.904 317.291 160.02C317.831 160.573 318.321 161.153 318.81 161.747C319.387 162.438 319.965 163.129 320.542 163.819C322.864 166.61 325.17 169.41 327.458 172.219C329.755 175.037 332.031 177.86 334.287 180.687C334.45 180.894 334.613 181.101 334.776 181.309C336.044 182.883 337.286 184.472 338.541 186.061Z" fill="white"/>
<path d="M316.281 162.317C315.807 161.644 315.175 161.127 314.453 160.822L313.739 160.849C319.341 170.444 326.681 178.664 335.299 184.996C328.959 177.436 322.62 169.876 316.281 162.317Z" fill="white"/>
<path d="M433.193 262.023L404.758 94.4546C404.271 91.6923 402.946 89.1939 401 87.369C399.055 85.544 396.603 84.5009 394.048 84.4107C393.818 84.4051 393.588 84.4051 393.358 84.4107L373.987 85.1755L371.903 85.2598L362.235 85.6422L360.151 85.721L353.932 85.9684L228.542 90.9229C228.353 90.9341 228.158 90.9341 227.969 90.9285L199.871 90.2818L189.473 90.0456L189.141 90.04L181.467 89.86L114.592 88.3303L96.8612 87.9198L88.1186 87.723L86.0237 87.6724L76.0548 87.4474L73.965 87.3968L63.7661 87.1662L61.6762 87.1156L50.4708 86.8569L48.7131 86.8175L38.7186 86.587L37.1398 86.5532H36.9099C34.2565 86.5651 31.6925 87.6091 29.6709 89.5006C27.6494 91.3921 26.3005 94.0093 25.8628 96.8896L0.146024 270.774C-0.115128 272.535 -0.0252165 274.338 0.40951 276.058C0.844237 277.777 1.61337 279.372 2.66368 280.732C3.71399 282.091 5.02033 283.184 6.49222 283.933C7.96411 284.682 9.56635 285.069 11.1879 285.069H158.877C161.051 285.076 163.166 285.844 164.916 287.262L167.717 289.546C169.646 291.109 171.978 291.956 174.374 291.964C202.899 283.678 232.888 283.678 261.412 291.964C262.883 291.968 264.339 291.651 265.698 291.031C267.057 290.412 268.29 289.501 269.327 288.353C271.1 286.403 273.466 285.243 275.969 285.097L422.779 276.583C424.371 276.492 425.927 276.027 427.343 275.219C428.758 274.412 430 273.281 430.987 271.903C431.973 270.524 432.68 268.929 433.06 267.226C433.441 265.522 433.486 263.748 433.193 262.023V262.023Z" fill="#CCCCCC"/>
<path d="M392.961 235.893C392.772 241.571 390.543 246.935 386.762 250.805C382.982 254.675 377.96 256.734 372.8 256.531C364.275 256.199 354.102 256.033 343.061 256.287C307.003 257.135 261.702 262.597 234.452 282.24C231.027 284.714 226.98 285.936 222.888 285.732C222.586 285.712 222.294 285.693 221.993 285.663C217.75 285.236 213.752 283.287 210.614 280.114C195.603 264.996 161.175 246.69 82.3685 245.402C82.0406 245.402 81.7215 245.383 81.4025 245.363C78.85 245.186 76.3543 244.458 74.0578 243.219C71.7614 241.98 69.7093 240.255 68.0189 238.143C66.3285 236.03 65.0328 233.572 64.2061 230.909C63.3794 228.245 63.0377 225.428 63.2007 222.619L70.9458 87.3326L72.1066 67.0558L74.1448 31.5835C74.3504 28.0112 75.7838 24.659 78.154 22.2079C80.5242 19.7569 83.6533 18.3909 86.9056 18.3875H86.9854L133.934 18.6898C153.714 19.6749 170.096 22.448 183.081 27.0093C187.517 28.5231 191.832 30.4346 195.984 32.7247C201.654 35.7504 206.749 39.9377 210.995 45.0624C213.64 48.3362 217.248 50.4805 221.186 51.1191C221.797 51.2195 222.412 51.2814 223.03 51.3044C226.661 51.4698 230.245 50.341 233.247 48.0859C263.917 25.4683 326.419 23.7517 360.935 24.7271C365.762 24.851 370.374 26.9481 373.873 30.6099C377.372 34.2717 379.508 39.236 379.863 44.5357L381.263 64.7151L382.655 84.8358L390.683 201.123L392.916 233.474C392.971 234.279 392.986 235.086 392.961 235.893V235.893Z" fill="#F2F2F2"/>
<path d="M94.0482 65.9926C122.341 56.0577 153.905 58.6879 180.709 72.6841C188.356 76.6568 195.579 81.553 202.244 87.2823C204.129 88.9108 206.812 85.9978 204.906 84.3518C180.288 63.336 149.355 53.3525 118.324 56.4072C109.738 57.2527 101.263 59.1268 93.0471 61.9962C90.7472 62.8038 91.7302 66.8065 94.0481 65.9926H94.0482Z" fill="#3F3D56"/>
<path d="M249.733 88.8901C276.038 73.673 307.538 70.3547 336.138 78.9925C344.292 81.4493 352.172 84.8975 359.632 89.2736C361.769 90.5287 363.674 86.9524 361.532 85.695C334.274 69.6869 301.553 66.0018 271.787 74.9254C263.483 77.4192 255.451 80.9018 247.833 85.3115C245.687 86.553 247.588 90.1312 249.733 88.8901Z" fill="#3F3D56"/>
<path d="M249.733 116.519C276.038 101.302 307.538 97.9836 336.138 106.621C344.292 109.078 352.172 112.526 359.632 116.902C361.769 118.158 363.674 114.581 361.532 113.324C334.274 97.3158 301.553 93.6307 271.787 102.554C263.483 105.048 255.451 108.531 247.833 112.94C245.687 114.182 247.588 117.76 249.733 116.519L249.733 116.519Z" fill="#3F3D56"/>
<path d="M362.453 142.666C362.473 142.31 362.395 141.956 362.23 141.65C362.064 141.343 361.819 141.099 361.526 140.948C339.689 128.363 314.93 123.259 290.436 126.292C290.282 126.306 290.141 126.333 289.975 126.347H289.969C289.818 126.361 289.668 126.386 289.52 126.421C274.951 128.266 260.818 133.061 247.833 140.563C247.55 140.748 247.316 141.012 247.153 141.327C246.99 141.642 246.905 141.999 246.905 142.362V193.903C246.91 194.22 246.98 194.532 247.11 194.815C247.241 195.098 247.428 195.344 247.658 195.536C247.887 195.727 248.154 195.859 248.436 195.921C248.719 195.982 249.011 195.972 249.289 195.891C249.867 195.709 250.445 195.533 251.035 195.364C264.161 191.453 277.637 189.133 291.222 188.445C291.511 188.432 291.8 188.418 292.101 188.404C303.165 187.881 314.25 188.32 325.252 189.716C325.483 189.731 325.713 189.758 325.941 189.798C326.506 189.865 327.083 189.94 327.649 190.021C327.876 190.048 328.091 190.075 328.3 190.115C330.5 190.42 332.681 190.765 334.869 191.137C338.027 191.691 341.186 192.309 344.344 192.99C344.541 193.03 344.744 193.084 344.947 193.125C350.016 194.234 355.061 195.519 360.081 196.939C360.361 197.019 360.653 197.027 360.936 196.964C361.219 196.901 361.486 196.768 361.715 196.576C361.945 196.383 362.132 196.135 362.262 195.852C362.392 195.568 362.461 195.255 362.466 194.938V142.747C362.468 142.719 362.463 142.691 362.453 142.666V142.666Z" fill="#3F3D56"/>
<path d="M293.388 129.103C292.008 128.359 290.427 128.206 288.951 128.674C288.299 128.943 287.702 129.352 287.194 129.877C286.687 130.402 286.28 131.033 285.996 131.733C285.484 133.075 285.156 134.493 285.023 135.94C284.945 136.51 284.94 137.228 285.46 137.494C285.649 137.57 285.853 137.587 286.05 137.544C286.247 137.501 286.429 137.4 286.578 137.251C286.846 136.959 287.068 136.619 287.232 136.246C288.135 134.699 289.378 133.429 290.845 132.551C292.313 131.673 293.957 131.216 295.628 131.222L297.018 131.832C295.924 130.748 294.703 129.83 293.388 129.103V129.103Z" fill="#FF6582"/>
<path d="M308.434 140.982C307.355 139.234 306.076 137.368 304.074 136.797C301.756 136.136 299.374 137.449 297.354 138.745C291.346 142.596 285.529 146.795 279.926 151.325L279.932 151.392L292.937 150.514C296.069 150.302 299.309 150.061 302.077 148.61C303.071 147.924 304.181 147.469 305.341 147.272C306.06 147.315 306.765 147.514 307.414 147.859C308.063 148.203 308.643 148.685 309.122 149.277C315.115 155.53 316.85 165.091 323.574 170.584C319.295 160.264 314.23 150.362 308.434 140.982V140.982Z" fill="white"/>
<path d="M292.103 188.404C291.802 188.417 291.513 188.431 291.225 188.445C289.129 187.616 286.982 186.884 284.811 186.248C283.405 185.834 281.974 185.461 280.543 185.143C278.924 184.757 277.292 184.453 275.661 184.19C272.554 183.693 269.423 183.402 266.284 183.32C266.261 183.323 266.237 183.32 266.214 183.312C266.191 183.304 266.17 183.291 266.152 183.273C266.134 183.255 266.12 183.234 266.11 183.21C266.101 183.186 266.096 183.16 266.096 183.133C266.096 183.107 266.101 183.081 266.11 183.057C266.12 183.033 266.134 183.011 266.152 182.994C266.17 182.976 266.191 182.963 266.214 182.955C266.237 182.947 266.261 182.944 266.284 182.947C266.686 182.947 267.088 182.961 267.477 182.988C270.622 183.116 273.757 183.453 276.866 183.997C278.485 184.287 280.104 184.632 281.711 185.019C283.167 185.378 284.622 185.779 286.054 186.221C288.099 186.856 290.116 187.584 292.103 188.404Z" fill="white"/>
<path d="M328.302 190.117C328.089 190.075 327.875 190.047 327.649 190.02C326.783 189.233 325.905 188.487 324.989 187.754C323.846 186.843 322.666 185.986 321.462 185.185C318.793 183.402 316.007 181.841 313.127 180.516C308.574 178.429 303.861 176.792 299.044 175.625C293.549 174.3 287.987 173.341 282.388 172.752C276.79 172.116 271.167 171.73 265.543 171.343C265.305 171.329 265.292 170.942 265.543 170.956C266.246 171.011 266.949 171.053 267.665 171.108C273.351 171.495 279.037 171.937 284.685 172.641C290.285 173.302 295.841 174.363 301.316 175.819C305.99 177.086 310.552 178.811 314.947 180.971C317.475 182.222 319.924 183.657 322.277 185.268C323.771 186.304 325.214 187.409 326.595 188.583C327.173 189.081 327.75 189.578 328.302 190.117Z" fill="white"/>
<path d="M325.943 189.799C325.714 189.758 325.483 189.731 325.252 189.716C324.989 189.481 324.712 189.26 324.436 189.039C322.504 187.517 320.488 186.128 318.399 184.881C316.502 183.746 314.554 182.718 312.562 181.8C308.011 179.707 303.298 178.07 298.479 176.91C292.985 175.585 287.422 174.626 281.823 174.037C276.225 173.401 270.602 173.014 264.979 172.627C264.74 172.6 264.74 172.227 264.979 172.241C265.694 172.296 266.397 172.337 267.1 172.393C272.786 172.779 278.472 173.221 284.12 173.926C289.721 174.587 295.276 175.648 300.751 177.103C305.426 178.369 309.988 180.093 314.382 182.256C316.039 183.085 317.658 183.983 319.24 184.964C321.585 186.381 323.826 187.998 325.943 189.799Z" fill="white"/>
<path d="M344.946 193.128C344.746 193.087 344.545 193.031 344.344 192.99C344.118 192.727 343.904 192.451 343.691 192.175C342.612 190.807 341.545 189.426 340.49 188.03C336.336 182.588 332.395 176.979 328.679 171.26C325.491 166.369 322.466 161.382 319.604 156.299C318.236 153.895 316.918 151.463 315.626 149.004C314.621 147.098 313.642 145.187 312.688 143.272C312.412 142.719 312.149 142.166 311.885 141.614C311.27 140.315 310.655 139.003 310.002 137.718C309.293 136.144 308.251 134.78 306.965 133.739C306.322 133.266 305.577 132.985 304.806 132.924C303.717 132.929 302.647 133.233 301.693 133.808C294.671 137.408 288.046 141.881 281.949 147.139C275.994 152.237 270.61 158.094 265.908 164.587C265.757 164.781 265.431 164.601 265.569 164.394C266.134 163.62 266.711 162.847 267.288 162.087C271.807 156.204 276.896 150.882 282.464 146.214C282.476 146.2 282.501 146.186 282.514 146.173C283.003 145.744 283.493 145.33 283.995 144.929C287.103 142.41 290.339 140.085 293.685 137.967C295.392 136.875 297.137 135.839 298.919 134.858C299.358 134.61 299.81 134.361 300.262 134.126C300.714 133.878 301.166 133.643 301.618 133.408C302.512 132.906 303.49 132.61 304.492 132.538C307.981 132.482 309.776 136.351 311.019 138.961C311.408 139.777 311.81 140.592 312.199 141.407C313.705 144.487 315.274 147.554 316.906 150.579C317.897 152.458 318.926 154.323 319.968 156.174C321.462 158.813 322.993 161.424 324.587 164.021C324.587 164.023 324.588 164.025 324.588 164.026C324.589 164.028 324.59 164.029 324.591 164.031C324.592 164.032 324.593 164.033 324.595 164.034C324.596 164.034 324.598 164.035 324.599 164.035H324.6C326.445 167.102 328.365 170.113 330.349 173.111C333.75 178.236 337.315 183.246 341.043 188.141C342.323 189.826 343.624 191.489 344.946 193.128Z" fill="white"/>
<path d="M300.165 132.117L299.818 132.284C299.023 130.806 297.908 129.567 296.573 128.677C295.238 127.787 293.724 127.275 292.165 127.184C287.026 126.782 282.512 130.552 282.102 135.586C281.935 137.658 282.48 139.725 283.63 141.377L283.308 141.587C282.11 139.866 281.543 137.714 281.716 135.555C282.143 130.313 286.844 126.388 292.196 126.806C293.819 126.901 295.396 127.435 296.786 128.361C298.176 129.287 299.337 130.577 300.165 132.117V132.117Z" fill="#FF6582"/>
<path d="M274.773 142.302C273.425 141.656 271.956 141.373 270.488 141.476C269.02 141.579 267.596 142.065 266.333 142.893C270.945 143.672 275.517 144.717 280.029 146.025C278.161 144.952 276.699 143.272 274.773 142.302Z" fill="white"/>
<path d="M266.307 142.888L265.799 143.291C265.971 143.15 266.15 143.018 266.333 142.893L266.307 142.888Z" fill="white"/>
<path d="M281.601 145.234C281.398 145.013 281.197 144.792 280.993 144.571C279.431 142.699 277.549 141.184 275.456 140.111C274.39 139.617 273.247 139.357 272.09 139.347C270.896 139.378 269.714 139.63 268.596 140.094C268.07 140.299 267.555 140.533 267.048 140.782C266.469 141.068 265.901 141.372 265.334 141.679C264.272 142.255 263.223 142.856 262.188 143.483C260.129 144.73 258.134 146.072 256.203 147.509C255.202 148.255 254.222 149.024 253.263 149.818C252.371 150.556 251.496 151.314 250.64 152.091C250.457 152.257 250.184 151.989 250.367 151.823C250.592 151.617 250.821 151.413 251.049 151.211C251.694 150.64 252.349 150.08 253.014 149.53C254.228 148.527 255.472 147.563 256.749 146.637C258.733 145.197 260.786 143.855 262.907 142.61C263.968 141.988 265.042 141.393 266.131 140.824C266.46 140.652 266.793 140.484 267.129 140.325C267.898 139.945 268.691 139.629 269.502 139.378C270.666 139.012 271.882 138.894 273.086 139.034C274.238 139.195 275.357 139.575 276.392 140.154C278.444 141.42 280.296 143.045 281.874 144.965C282.039 145.147 281.767 145.416 281.601 145.234Z" fill="white"/>
<path d="M94.0482 93.6215C122.341 83.6866 153.905 86.3169 180.709 100.313C188.356 104.286 195.579 109.182 202.244 114.911C204.129 116.54 206.812 113.627 204.906 111.981C180.288 90.9649 149.355 80.9814 118.324 84.0361C109.738 84.8816 101.263 86.7557 93.0471 89.6252C90.7472 90.4327 91.7302 94.4354 94.0481 93.6215L94.0482 93.6215Z" fill="#3F3D56"/>
<path d="M94.0482 121.251C122.341 111.316 153.905 113.946 180.709 127.942C188.356 131.915 195.579 136.811 202.244 142.54C204.129 144.169 206.812 141.256 204.906 139.61C180.288 118.594 149.355 108.611 118.324 111.665C109.738 112.511 101.263 114.385 93.0471 117.254C90.7472 118.062 91.7302 122.065 94.0481 121.251L94.0482 121.251Z" fill="#3F3D56"/>
<path d="M94.0482 148.88C122.341 138.945 153.905 141.575 180.709 155.571C188.356 159.544 195.579 164.44 202.244 170.169C204.129 171.798 206.812 168.885 204.906 167.239C180.288 146.223 149.355 136.239 118.324 139.294C109.738 140.14 101.263 142.014 93.0471 144.883C90.7472 145.691 91.7302 149.693 94.0481 148.88L94.0482 148.88Z" fill="#3F3D56"/>
<path d="M94.0482 176.509C122.341 166.574 153.905 169.204 180.709 183.2C188.356 187.173 195.579 192.069 202.244 197.798C204.129 199.427 206.812 196.514 204.906 194.868C180.288 173.852 149.355 163.869 118.324 166.923C109.738 167.769 101.263 169.643 93.0471 172.512C90.7472 173.32 91.7302 177.323 94.0481 176.509L94.0482 176.509Z" fill="#3F3D56"/>
<path d="M94.0482 204.138C122.341 194.203 153.905 196.833 180.709 210.829C188.356 214.802 195.579 219.698 202.244 225.427C204.129 227.056 206.812 224.143 204.906 222.497C180.288 201.481 149.355 191.498 118.324 194.552C109.738 195.398 101.263 197.272 93.0471 200.141C90.7472 200.949 91.7302 204.952 94.0481 204.138H94.0482Z" fill="#3F3D56"/>
<path d="M195.984 32.7246V98.9779C195.984 100.295 193.892 101.397 191.074 101.699C191.05 101.697 191.026 101.701 191.003 101.709C190.534 101.748 190.037 101.777 189.532 101.777C187.979 101.808 186.433 101.531 184.969 100.958C184.836 100.899 184.703 100.831 184.57 100.773C184.446 100.694 184.313 100.626 184.189 100.548C183.489 100.09 183.081 99.5534 183.081 98.9779V27.0093C187.517 28.5231 191.832 30.4346 195.984 32.7246V32.7246Z" fill="#6C63FF"/>
<path d="M223.028 48.0911H221.184V284.347H223.028V48.0911Z" fill="#E6E6E6"/>
<path d="M423.497 209.825C424.805 209.693 426.07 209.248 427.204 208.52C428.337 207.792 429.313 206.799 430.06 205.612C430.808 204.424 431.31 203.07 431.531 201.646C431.751 200.222 431.686 198.762 431.339 197.369L469.601 177.711L492.637 136.7L474.53 128.654L458.99 161.702L419.658 190.549C417.57 191.346 415.82 192.959 414.74 195.081C413.661 197.203 413.326 199.688 413.799 202.064C414.272 204.44 415.521 206.542 417.308 207.972C419.096 209.403 421.298 210.062 423.497 209.825V209.825Z" fill="#FFB6B6"/>
<path d="M506.846 97.412C506.846 97.412 511.356 99.032 506.406 108.659C502.444 116.365 483.142 160.758 475.265 169.474C476.094 170.936 476.457 172.66 476.298 174.374C476.139 176.088 475.466 177.695 474.385 178.942L456.199 163.059C455.851 157.282 459.325 156.708 461.383 156.903L465.567 140.583L480.16 100.323L503.606 96.1772L506.846 97.412Z" fill="#6C63FF"/>
<path d="M507.239 21.9526C508.099 18.1262 514.337 15.301 503.651 9.95885C501.058 8.66237 501.166 4.19757 498.972 2.19807C496.778 0.198577 493.566 -0.728415 491.016 0.669156C488.739 1.91718 487.456 4.74151 487.183 7.52477C487.052 10.326 487.345 13.1318 488.052 15.8268L487.845 16.1599C492.078 19.7247 496.311 23.2896 500.544 26.8543C502.099 28.1643 504.133 29.536 505.876 28.5531C507.849 27.4403 506.707 24.3216 507.239 21.9526Z" fill="#2F2E41"/>
</g>
<defs>
<clipPath id="clip0_105_263">
<rect width="593" height="499" fill="white"/>
</clipPath>
</defs>
</svg>
